<svg xmlns="http://www.w3.org/2000/svg" xmlns:xlink="http://www.w3.org/1999/xlink" width="385.479" height="167.584" viewBox="0 0 385.479 167.584">
  <defs>
    <radialGradient id="radial-gradient" cx="0.688" cy="0.354" r="0.624" gradientTransform="translate(-0.02) scale(1.04 1)" gradientUnits="objectBoundingBox">
      <stop offset="0" stop-color="#2075ad"/>
      <stop offset="1" stop-color="#0062a8"/>
    </radialGradient>
    <radialGradient id="radial-gradient-2" cx="0.734" cy="0.328" r="1.064" gradientTransform="translate(-0.015) scale(1.03 1)" xlink:href="#radial-gradient"/>
    <radialGradient id="radial-gradient-3" cx="0.858" cy="0.319" r="1.663" gradientTransform="translate(-0.014) scale(1.028 1)" xlink:href="#radial-gradient"/>
    <radialGradient id="radial-gradient-4" cx="1.144" cy="0.126" r="3.369" gradientTransform="translate(-0.016) scale(1.033 1)" xlink:href="#radial-gradient"/>
  </defs>
  <g id="Groupe_13073" data-name="Groupe 13073" transform="translate(-843.054 -6.362)">
    <rect id="Rectangle_1" data-name="Rectangle 1" width="307.479" height="89.584" rx="19.593" transform="translate(882.054 45.362)" fill="#fff" opacity="0.09"/>
    <g id="Groupe_145" data-name="Groupe 145" transform="translate(899.901 47.007)">
      <g id="Groupe_138" data-name="Groupe 138" transform="translate(93.305 55.336)">
        <path id="Tracé_331" data-name="Tracé 331" d="M992.52,107.306v2.9h-.855V103.2h1.816a7.73,7.73,0,0,1,.783.033,3.7,3.7,0,0,1,.589.109,2.086,2.086,0,0,1,1.12.678,1.839,1.839,0,0,1,.387,1.2,2.013,2.013,0,0,1-.136.76,1.738,1.738,0,0,1-.383.581,1.98,1.98,0,0,1-.589.4,3.1,3.1,0,0,1-.763.229v.022l2.075,3h-.854l-2.159-2.9Zm0-3.338v2.568h.844c.261,0,.485-.009.67-.025a2.51,2.51,0,0,0,.5-.1,1.372,1.372,0,0,0,.687-.435,1.206,1.206,0,0,0,.24-.78,1.129,1.129,0,0,0-.23-.726,1.244,1.244,0,0,0-.624-.4,2.415,2.415,0,0,0-.45-.084c-.175-.017-.4-.026-.665-.026Z" transform="translate(-991.665 -101.531)" fill="#0063ac"/>
        <path id="Tracé_332" data-name="Tracé 332" d="M999.417,109.461h3.594v.771h-4.448v-7.01h4.255v.77h-3.4v2.263h3.024v.771h-3.024Zm2.568-7.907-.948,1.295h-.729l.766-1.295Z" transform="translate(-991.568 -101.554)" fill="#0063ac"/>
        <path id="Tracé_333" data-name="Tracé 333" d="M1007.74,109.579a2.34,2.34,0,0,0,.678-.089,1.689,1.689,0,0,0,.516-.251,1.463,1.463,0,0,0,.367-.39,1.874,1.874,0,0,0,.225-.506,2.056,2.056,0,0,0,.073-.384c.014-.141.021-.279.021-.412V103.2h.854v4.328a5,5,0,0,1-.026.513,3.549,3.549,0,0,1-.083.5,2.644,2.644,0,0,1-.3.718,2.027,2.027,0,0,1-.519.571,2.462,2.462,0,0,1-.767.377,4.132,4.132,0,0,1-2.063.01,2.409,2.409,0,0,1-.746-.349,1.947,1.947,0,0,1-.511-.528,2.626,2.626,0,0,1-.309-.668,3.329,3.329,0,0,1-.113-.561,5.2,5.2,0,0,1-.033-.581V103.2h.854v4.348a3.5,3.5,0,0,0,.034.486,2.232,2.232,0,0,0,.107.452,1.613,1.613,0,0,0,.611.8A1.962,1.962,0,0,0,1007.74,109.579Z" transform="translate(-991.478 -101.531)" fill="#0063ac"/>
        <path id="Tracé_334" data-name="Tracé 334" d="M1013.45,105.055a.95.95,0,0,0,.126.511,1.036,1.036,0,0,0,.337.333,2.036,2.036,0,0,0,.491.214c.187.057.38.108.582.157.273.067.539.14.8.22a2.621,2.621,0,0,1,.7.333,1.64,1.64,0,0,1,.5.554,1.78,1.78,0,0,1,.19.874,2,2,0,0,1-.206.941,1.79,1.79,0,0,1-.571.65,2.584,2.584,0,0,1-.863.377,4.527,4.527,0,0,1-1.089.123,4.813,4.813,0,0,1-.559-.033q-.284-.035-.545-.092a4.052,4.052,0,0,1-.469-.131,1.824,1.824,0,0,1-.331-.146v-.781a3.457,3.457,0,0,0,.425.172,4.632,4.632,0,0,0,.487.134q.251.055.508.086a3.912,3.912,0,0,0,.483.031,3.777,3.777,0,0,0,.7-.063,1.818,1.818,0,0,0,.584-.21,1.078,1.078,0,0,0,.4-.4,1.25,1.25,0,0,0,.147-.637.963.963,0,0,0-.128-.518,1.067,1.067,0,0,0-.344-.339,2.022,2.022,0,0,0-.5-.217c-.187-.056-.382-.109-.589-.157q-.408-.094-.8-.212a2.519,2.519,0,0,1-.7-.328,1.613,1.613,0,0,1-.493-.539,1.709,1.709,0,0,1-.186-.844,2,2,0,0,1,.2-.92,1.789,1.789,0,0,1,.529-.637,2.24,2.24,0,0,1,.769-.372,3.466,3.466,0,0,1,.928-.121,4.8,4.8,0,0,1,1.045.109,5.036,5.036,0,0,1,.888.28v.791a6.056,6.056,0,0,0-.9-.3,4.314,4.314,0,0,0-.993-.12,2.449,2.449,0,0,0-.692.086,1.362,1.362,0,0,0-.488.246.991.991,0,0,0-.288.387A1.309,1.309,0,0,0,1013.45,105.055Z" transform="translate(-991.372 -101.533)" fill="#0063ac"/>
        <path id="Tracé_335" data-name="Tracé 335" d="M1019.924,105.055a.95.95,0,0,0,.126.511,1.047,1.047,0,0,0,.337.333,2.065,2.065,0,0,0,.492.214c.186.057.38.108.582.157q.408.1.8.22a2.6,2.6,0,0,1,.7.333,1.641,1.641,0,0,1,.5.554,1.779,1.779,0,0,1,.191.874,2.016,2.016,0,0,1-.206.941,1.794,1.794,0,0,1-.572.65,2.57,2.57,0,0,1-.862.377,4.537,4.537,0,0,1-1.09.123,4.794,4.794,0,0,1-.558-.033q-.286-.035-.545-.092a3.985,3.985,0,0,1-.469-.131,1.863,1.863,0,0,1-.332-.146v-.781a3.465,3.465,0,0,0,.425.172,4.731,4.731,0,0,0,.488.134q.251.055.508.086a3.913,3.913,0,0,0,.482.031,3.787,3.787,0,0,0,.7-.063,1.817,1.817,0,0,0,.584-.21,1.086,1.086,0,0,0,.4-.4,1.261,1.261,0,0,0,.146-.637.962.962,0,0,0-.128-.518,1.055,1.055,0,0,0-.344-.339,2,2,0,0,0-.495-.217c-.188-.056-.383-.109-.589-.157-.273-.063-.538-.134-.8-.212a2.541,2.541,0,0,1-.7-.328,1.6,1.6,0,0,1-.492-.539,1.71,1.71,0,0,1-.187-.844,2,2,0,0,1,.2-.92,1.8,1.8,0,0,1,.528-.637,2.258,2.258,0,0,1,.769-.372,3.471,3.471,0,0,1,.928-.121,4.793,4.793,0,0,1,1.045.109,4.986,4.986,0,0,1,.888.28v.791a6.087,6.087,0,0,0-.9-.3,4.318,4.318,0,0,0-.994-.12,2.443,2.443,0,0,0-.691.086,1.353,1.353,0,0,0-.488.246.97.97,0,0,0-.288.387A1.292,1.292,0,0,0,1019.924,105.055Z" transform="translate(-991.281 -101.533)" fill="#0063ac"/>
        <path id="Tracé_336" data-name="Tracé 336" d="M1025.713,110.208V103.2h.855v7.01Z" transform="translate(-991.187 -101.531)" fill="#0063ac"/>
        <path id="Tracé_337" data-name="Tracé 337" d="M1031.471,110.208h-.854v-6.24h-2.342v-.77h5.538v.77h-2.341Z" transform="translate(-991.151 -101.531)" fill="#0063ac"/>
        <path id="Tracé_338" data-name="Tracé 338" d="M1036.311,109.437h3.594v.771h-4.448V103.2h4.255v.77h-3.4v2.263h3.023V107h-3.023Z" transform="translate(-991.05 -101.531)" fill="#0063ac"/>
        <path id="Tracé_339" data-name="Tracé 339" d="M1043.515,110.208l2.855-7.01h.739l2.854,7.01h-.927l-.838-2.111h-2.932l-.837,2.111Zm3.218-5.921q-.47,1.31-.9,2.379l-.262.66h2.324l-.267-.659q-.43-1.089-.878-2.38Z" transform="translate(-990.936 -101.531)" fill="#0063ac"/>
        <path id="Tracé_340" data-name="Tracé 340" d="M1052.253,105.055a.951.951,0,0,0,.126.511,1.047,1.047,0,0,0,.337.333,2.065,2.065,0,0,0,.492.214c.186.057.38.108.582.157q.408.1.8.22a2.6,2.6,0,0,1,.7.333,1.646,1.646,0,0,1,.5.554,1.781,1.781,0,0,1,.191.874,2,2,0,0,1-.206.941,1.784,1.784,0,0,1-.572.65,2.569,2.569,0,0,1-.862.377,4.531,4.531,0,0,1-1.089.123,4.8,4.8,0,0,1-.559-.033c-.191-.023-.371-.054-.544-.092a3.983,3.983,0,0,1-.469-.131,1.828,1.828,0,0,1-.331-.146v-.781a3.434,3.434,0,0,0,.424.172,4.711,4.711,0,0,0,.488.134q.251.055.508.086a3.91,3.91,0,0,0,.483.031,3.786,3.786,0,0,0,.7-.063,1.82,1.82,0,0,0,.584-.21,1.087,1.087,0,0,0,.4-.4,1.261,1.261,0,0,0,.146-.637.964.964,0,0,0-.128-.518,1.057,1.057,0,0,0-.344-.339,2,2,0,0,0-.495-.217c-.187-.056-.384-.109-.589-.157q-.408-.094-.8-.212a2.539,2.539,0,0,1-.7-.328,1.6,1.6,0,0,1-.492-.539,1.709,1.709,0,0,1-.186-.844,2,2,0,0,1,.2-.92,1.8,1.8,0,0,1,.528-.637,2.258,2.258,0,0,1,.769-.372,3.472,3.472,0,0,1,.928-.121,4.811,4.811,0,0,1,1.046.109,5.007,5.007,0,0,1,.887.28v.791a6.107,6.107,0,0,0-.9-.3,4.317,4.317,0,0,0-.994-.12,2.448,2.448,0,0,0-.691.086,1.356,1.356,0,0,0-.488.246.971.971,0,0,0-.288.387A1.292,1.292,0,0,0,1052.253,105.055Z" transform="translate(-990.826 -101.533)" fill="#0063ac"/>
        <path id="Tracé_341" data-name="Tracé 341" d="M1058.729,105.055a.948.948,0,0,0,.126.511,1.035,1.035,0,0,0,.336.333,2.075,2.075,0,0,0,.491.214c.187.057.38.108.582.157q.409.1.8.22a2.61,2.61,0,0,1,.7.333,1.64,1.64,0,0,1,.5.554,1.779,1.779,0,0,1,.191.874,2.006,2.006,0,0,1-.207.941,1.782,1.782,0,0,1-.571.65,2.568,2.568,0,0,1-.863.377,4.523,4.523,0,0,1-1.089.123,4.809,4.809,0,0,1-.559-.033q-.285-.035-.545-.092a4.046,4.046,0,0,1-.469-.131,1.848,1.848,0,0,1-.331-.146v-.781a3.449,3.449,0,0,0,.425.172,4.664,4.664,0,0,0,.488.134q.251.055.508.086a3.893,3.893,0,0,0,.482.031,3.8,3.8,0,0,0,.7-.063,1.828,1.828,0,0,0,.584-.21,1.075,1.075,0,0,0,.4-.4,1.252,1.252,0,0,0,.147-.637.964.964,0,0,0-.128-.518,1.055,1.055,0,0,0-.344-.339,2.027,2.027,0,0,0-.495-.217c-.188-.056-.383-.109-.589-.157q-.409-.094-.8-.212a2.53,2.53,0,0,1-.7-.328,1.6,1.6,0,0,1-.492-.539,1.71,1.71,0,0,1-.187-.844,2,2,0,0,1,.2-.92,1.781,1.781,0,0,1,.528-.637,2.261,2.261,0,0,1,.769-.372,3.469,3.469,0,0,1,.927-.121,4.791,4.791,0,0,1,1.045.109,5.035,5.035,0,0,1,.888.28v.791a6.059,6.059,0,0,0-.9-.3,4.3,4.3,0,0,0-.993-.12,2.454,2.454,0,0,0-.692.086,1.356,1.356,0,0,0-.487.246.967.967,0,0,0-.288.387A1.29,1.29,0,0,0,1058.729,105.055Z" transform="translate(-990.735 -101.533)" fill="#0063ac"/>
        <path id="Tracé_342" data-name="Tracé 342" d="M1067.227,109.579a2.341,2.341,0,0,0,.678-.089,1.663,1.663,0,0,0,.516-.251,1.46,1.46,0,0,0,.368-.39,1.911,1.911,0,0,0,.224-.506,1.98,1.98,0,0,0,.073-.384c.014-.141.021-.279.021-.412V103.2h.855v4.328a5,5,0,0,1-.027.513,3.427,3.427,0,0,1-.083.5,2.647,2.647,0,0,1-.3.718,2.005,2.005,0,0,1-.518.571,2.457,2.457,0,0,1-.768.377,4.128,4.128,0,0,1-2.062.01,2.415,2.415,0,0,1-.747-.349,1.946,1.946,0,0,1-.511-.528,2.624,2.624,0,0,1-.308-.668,3.258,3.258,0,0,1-.114-.561,5.233,5.233,0,0,1-.034-.581V103.2h.854v4.348a3.677,3.677,0,0,0,.034.486,2.324,2.324,0,0,0,.107.452,1.61,1.61,0,0,0,.611.8A1.964,1.964,0,0,0,1067.227,109.579Z" transform="translate(-990.641 -101.531)" fill="#0063ac"/>
        <path id="Tracé_343" data-name="Tracé 343" d="M1073.107,107.306v2.9h-.855V103.2h1.816a7.7,7.7,0,0,1,.782.033,3.692,3.692,0,0,1,.59.109,2.086,2.086,0,0,1,1.119.678,1.839,1.839,0,0,1,.387,1.2,2.015,2.015,0,0,1-.136.76,1.742,1.742,0,0,1-.384.581,1.981,1.981,0,0,1-.589.4,3.12,3.12,0,0,1-.763.229v.022l2.075,3h-.854l-2.159-2.9Zm0-3.338v2.568h.844c.262,0,.485-.009.67-.025a2.507,2.507,0,0,0,.5-.1,1.37,1.37,0,0,0,.687-.435,1.206,1.206,0,0,0,.24-.78,1.129,1.129,0,0,0-.23-.726,1.244,1.244,0,0,0-.624-.4,2.412,2.412,0,0,0-.45-.084q-.263-.026-.665-.026Z" transform="translate(-990.533 -101.531)" fill="#0063ac"/>
        <path id="Tracé_344" data-name="Tracé 344" d="M1080,109.461h3.594v.771h-4.449v-7.01h4.256v.77H1080v2.263h3.024v.771H1080Zm2.567-7.907-.947,1.295h-.729l.766-1.295Z" transform="translate(-990.436 -101.554)" fill="#0063ac"/>
        <path id="Tracé_345" data-name="Tracé 345" d="M1086.472,109.437h3.594v.771h-4.449V103.2h4.255v.77h-3.4v2.263h3.023V107h-3.023Z" transform="translate(-990.345 -101.531)" fill="#0063ac"/>
        <path id="Tracé_346" data-name="Tracé 346" d="M1100.519,106.672a4.208,4.208,0,0,1-.152,1.152,3.111,3.111,0,0,1-.459.971,2.99,2.99,0,0,1-.764.747,3.583,3.583,0,0,1-1.072.487,4.139,4.139,0,0,1-.76.139q-.407.04-.885.04h-1.588V103.2h1.6c.317,0,.614.013.886.039a4.252,4.252,0,0,1,.76.14,3.7,3.7,0,0,1,1.072.481,2.926,2.926,0,0,1,1.21,1.68A4.1,4.1,0,0,1,1100.519,106.672Zm-.848,0a2.768,2.768,0,0,0-.447-1.64,2.39,2.39,0,0,0-1.28-.891,3.347,3.347,0,0,0-.711-.136c-.263-.025-.558-.038-.887-.038h-.652v5.47h.652c.33,0,.625-.011.887-.036a3.348,3.348,0,0,0,.711-.136,2.335,2.335,0,0,0,1.28-.917A2.915,2.915,0,0,0,1099.671,106.672Z" transform="translate(-990.215 -101.531)" fill="#0063ac"/>
        <path id="Tracé_347" data-name="Tracé 347" d="M1103.428,109.437h3.594v.771h-4.449V103.2h4.256v.77h-3.4v2.263h3.023V107h-3.023Z" transform="translate(-990.106 -101.531)" fill="#0063ac"/>
        <path id="Tracé_348" data-name="Tracé 348" d="M1113.443,109.118q.379-1.147.818-2.315l1.346-3.6h.854l-2.658,7.01h-.745l-2.659-7.01h.854l1.346,3.6q.443,1.167.823,2.315Z" transform="translate(-989.996 -101.531)" fill="#0063ac"/>
        <path id="Tracé_349" data-name="Tracé 349" d="M1124.295,106.71a4.486,4.486,0,0,1-.228,1.461,3.351,3.351,0,0,1-.655,1.148,2.968,2.968,0,0,1-1.027.751,3.243,3.243,0,0,1-1.343.27,3.365,3.365,0,0,1-1.377-.27,2.908,2.908,0,0,1-1.03-.751,3.346,3.346,0,0,1-.644-1.148,4.56,4.56,0,0,1-.223-1.461,4.489,4.489,0,0,1,.23-1.469,3.4,3.4,0,0,1,.656-1.151,2.953,2.953,0,0,1,1.025-.751,3.268,3.268,0,0,1,1.352-.271,3.321,3.321,0,0,1,1.37.271,2.932,2.932,0,0,1,1.027.751,3.342,3.342,0,0,1,.644,1.151A4.6,4.6,0,0,1,1124.295,106.71Zm-.849,0a3.836,3.836,0,0,0-.185-1.248,2.593,2.593,0,0,0-.511-.9,2.142,2.142,0,0,0-.769-.548,2.528,2.528,0,0,0-1.9,0,2.149,2.149,0,0,0-.769.548,2.59,2.59,0,0,0-.511.9,3.843,3.843,0,0,0-.185,1.248,3.747,3.747,0,0,0,.188,1.243,2.607,2.607,0,0,0,.514.9,2.128,2.128,0,0,0,.768.545,2.483,2.483,0,0,0,.956.184,2.436,2.436,0,0,0,.946-.184,2.135,2.135,0,0,0,.763-.545,2.589,2.589,0,0,0,.511-.9A3.792,3.792,0,0,0,1123.446,106.71Z" transform="translate(-989.893 -101.533)" fill="#0063ac"/>
        <path id="Tracé_350" data-name="Tracé 350" d="M1127.074,105.055a.948.948,0,0,0,.126.511,1.032,1.032,0,0,0,.336.333,2.038,2.038,0,0,0,.491.214c.187.057.38.108.582.157q.409.1.8.22a2.621,2.621,0,0,1,.7.333,1.645,1.645,0,0,1,.5.554,1.781,1.781,0,0,1,.19.874,2,2,0,0,1-.206.941,1.79,1.79,0,0,1-.571.65,2.585,2.585,0,0,1-.863.377,4.524,4.524,0,0,1-1.089.123,4.812,4.812,0,0,1-.559-.033q-.284-.035-.545-.092a4.059,4.059,0,0,1-.469-.131,1.814,1.814,0,0,1-.33-.146v-.781a3.445,3.445,0,0,0,.425.172,4.656,4.656,0,0,0,.487.134q.251.055.508.086a3.916,3.916,0,0,0,.483.031,3.778,3.778,0,0,0,.7-.063,1.817,1.817,0,0,0,.584-.21,1.079,1.079,0,0,0,.4-.4,1.252,1.252,0,0,0,.147-.637.963.963,0,0,0-.128-.518,1.069,1.069,0,0,0-.344-.339,2.016,2.016,0,0,0-.5-.217c-.187-.056-.382-.109-.589-.157q-.408-.094-.8-.212a2.523,2.523,0,0,1-.7-.328,1.615,1.615,0,0,1-.493-.539,1.708,1.708,0,0,1-.186-.844,2,2,0,0,1,.2-.92,1.788,1.788,0,0,1,.529-.637,2.241,2.241,0,0,1,.769-.372,3.466,3.466,0,0,1,.928-.121,4.8,4.8,0,0,1,1.045.109,5.035,5.035,0,0,1,.888.28v.791a6.059,6.059,0,0,0-.9-.3,4.312,4.312,0,0,0-.993-.12,2.45,2.45,0,0,0-.692.086,1.361,1.361,0,0,0-.488.246.988.988,0,0,0-.288.387A1.309,1.309,0,0,0,1127.074,105.055Z" transform="translate(-989.775 -101.533)" fill="#0063ac"/>
        <path id="Tracé_351" data-name="Tracé 351" d="M1136.471,110.208h-.855V103.2h1.942a5.653,5.653,0,0,1,.8.053,3.469,3.469,0,0,1,.677.162,1.939,1.939,0,0,1,.953.673,1.827,1.827,0,0,1,.324,1.1,2,2,0,0,1-.212.941,1.847,1.847,0,0,1-.613.678,3.012,3.012,0,0,1-.982.412,5.653,5.653,0,0,1-1.311.139c-.234,0-.475-.011-.727-.032Zm0-3.662c.115.013.235.023.361.03s.246.011.357.011a4.884,4.884,0,0,0,1.027-.094,2,2,0,0,0,.69-.276,1.081,1.081,0,0,0,.388-.439,1.392,1.392,0,0,0,.12-.59,1.087,1.087,0,0,0-.2-.67,1.214,1.214,0,0,0-.558-.4,2.216,2.216,0,0,0-.519-.118,5.837,5.837,0,0,0-.68-.034h-.991Z" transform="translate(-989.642 -101.531)" fill="#0063ac"/>
        <path id="Tracé_352" data-name="Tracé 352" d="M1143.141,107.306v2.9h-.855V103.2h1.816a7.737,7.737,0,0,1,.783.033,3.673,3.673,0,0,1,.589.109,2.087,2.087,0,0,1,1.12.678,1.841,1.841,0,0,1,.387,1.2,2.015,2.015,0,0,1-.136.76,1.734,1.734,0,0,1-.383.581,1.983,1.983,0,0,1-.589.4,3.1,3.1,0,0,1-.762.229v.022l2.075,3h-.854l-2.159-2.9Zm0-3.338v2.568h.844c.261,0,.485-.009.67-.025a2.509,2.509,0,0,0,.5-.1,1.372,1.372,0,0,0,.687-.435,1.206,1.206,0,0,0,.24-.78,1.128,1.128,0,0,0-.23-.726,1.245,1.245,0,0,0-.623-.4,2.426,2.426,0,0,0-.451-.084c-.175-.017-.4-.026-.665-.026Z" transform="translate(-989.548 -101.531)" fill="#0063ac"/>
        <path id="Tracé_353" data-name="Tracé 353" d="M1155.454,106.71a4.476,4.476,0,0,1-.228,1.461,3.348,3.348,0,0,1-.655,1.148,2.973,2.973,0,0,1-1.026.751,3.249,3.249,0,0,1-1.344.27,3.365,3.365,0,0,1-1.377-.27,2.915,2.915,0,0,1-1.03-.751,3.346,3.346,0,0,1-.644-1.148,4.563,4.563,0,0,1-.223-1.461,4.49,4.49,0,0,1,.23-1.469,3.416,3.416,0,0,1,.656-1.151,2.947,2.947,0,0,1,1.026-.751,3.26,3.26,0,0,1,1.352-.271,3.314,3.314,0,0,1,1.369.271,2.921,2.921,0,0,1,1.027.751,3.366,3.366,0,0,1,.645,1.151A4.629,4.629,0,0,1,1155.454,106.71Zm-.849,0a3.843,3.843,0,0,0-.184-1.248,2.592,2.592,0,0,0-.511-.9,2.142,2.142,0,0,0-.769-.548,2.528,2.528,0,0,0-1.9,0,2.15,2.15,0,0,0-.769.548,2.588,2.588,0,0,0-.511.9,3.84,3.84,0,0,0-.185,1.248,3.744,3.744,0,0,0,.187,1.243,2.611,2.611,0,0,0,.514.9,2.129,2.129,0,0,0,.768.545,2.483,2.483,0,0,0,.956.184,2.435,2.435,0,0,0,.946-.184,2.134,2.134,0,0,0,.763-.545,2.587,2.587,0,0,0,.511-.9A3.8,3.8,0,0,0,1154.6,106.71Z" transform="translate(-989.455 -101.533)" fill="#0063ac"/>
        <path id="Tracé_354" data-name="Tracé 354" d="M1158.682,103.2h.854v5.4a2.031,2.031,0,0,1-.131.76,1.42,1.42,0,0,1-.374.541,1.6,1.6,0,0,1-.584.329,2.5,2.5,0,0,1-.766.11,3,3,0,0,1-.61-.061,1.985,1.985,0,0,1-.375-.112v-.754a2.283,2.283,0,0,0,.422.123,2.6,2.6,0,0,0,.491.045,1.712,1.712,0,0,0,.434-.053.8.8,0,0,0,.341-.178.822.822,0,0,0,.22-.335,1.474,1.474,0,0,0,.079-.518Z" transform="translate(-989.345 -101.531)" fill="#0063ac"/>
        <path id="Tracé_355" data-name="Tracé 355" d="M1162.716,109.437h3.594v.771h-4.449V103.2h4.256v.77h-3.4v2.263h3.024V107h-3.024Z" transform="translate(-989.273 -101.531)" fill="#0063ac"/>
        <path id="Tracé_356" data-name="Tracé 356" d="M1170.854,110.208H1170v-6.24h-2.343v-.77h5.538v.77h-2.341Z" transform="translate(-989.192 -101.531)" fill="#0063ac"/>
        <path id="Tracé_357" data-name="Tracé 357" d="M1175.524,105.055a.949.949,0,0,0,.126.511,1.035,1.035,0,0,0,.337.333,2.056,2.056,0,0,0,.491.214c.187.057.38.108.582.157q.409.1.8.22a2.609,2.609,0,0,1,.7.333,1.642,1.642,0,0,1,.5.554,1.783,1.783,0,0,1,.19.874,2,2,0,0,1-.206.941,1.778,1.778,0,0,1-.571.65,2.574,2.574,0,0,1-.863.377,4.528,4.528,0,0,1-1.089.123,4.808,4.808,0,0,1-.559-.033q-.285-.035-.544-.092a4.041,4.041,0,0,1-.469-.131,1.857,1.857,0,0,1-.331-.146v-.781a3.443,3.443,0,0,0,.425.172,4.643,4.643,0,0,0,.487.134q.253.055.508.086a3.927,3.927,0,0,0,.483.031,3.8,3.8,0,0,0,.7-.063,1.829,1.829,0,0,0,.584-.21,1.078,1.078,0,0,0,.4-.4,1.252,1.252,0,0,0,.147-.637.962.962,0,0,0-.128-.518,1.056,1.056,0,0,0-.344-.339,2.029,2.029,0,0,0-.495-.217c-.188-.056-.383-.109-.589-.157q-.409-.094-.8-.212a2.531,2.531,0,0,1-.7-.328,1.6,1.6,0,0,1-.492-.539,1.709,1.709,0,0,1-.187-.844,2.015,2.015,0,0,1,.2-.92,1.79,1.79,0,0,1,.529-.637,2.26,2.26,0,0,1,.769-.372,3.472,3.472,0,0,1,.928-.121,4.794,4.794,0,0,1,1.045.109,5.044,5.044,0,0,1,.888.28v.791a6.067,6.067,0,0,0-.9-.3,4.309,4.309,0,0,0-.993-.12,2.454,2.454,0,0,0-.692.086,1.358,1.358,0,0,0-.487.246.972.972,0,0,0-.288.387A1.292,1.292,0,0,0,1175.524,105.055Z" transform="translate(-989.094 -101.533)" fill="#0063ac"/>
      </g>
      <g id="Groupe_139" data-name="Groupe 139" transform="translate(93.428 20.65)">
        <path id="Tracé_358" data-name="Tracé 358" d="M1013.482,94.3l-2.651-6.719h-13.86L994.36,94.3h-2.573l10.635-26.761h3.034L1016.13,94.3Zm-15.628-8.907h12.095l-6.029-15.319h-.076Z" transform="translate(-991.787 -67.345)" fill="#5a5b5e"/>
        <path id="Tracé_359" data-name="Tracé 359" d="M1021.51,94.3V67.538h14.321a11.113,11.113,0,0,1,2.476.229,3.37,3.37,0,0,1,1.555.769,2.89,2.89,0,0,1,.806,1.44,9.219,9.219,0,0,1,.231,2.246V76.56a5.874,5.874,0,0,1-.461,2.688,2.377,2.377,0,0,1-1.459,1.151,2.407,2.407,0,0,1,1.575,1.172,5.472,5.472,0,0,1,.46,2.515v5.567a9.261,9.261,0,0,1-.23,2.246,2.981,2.981,0,0,1-.787,1.44,3.072,3.072,0,0,1-1.517.748,11.744,11.744,0,0,1-2.457.211Zm17.009-22.537a5.257,5.257,0,0,0-.077-.98,1.163,1.163,0,0,0-.346-.653,1.494,1.494,0,0,0-.729-.345,6.533,6.533,0,0,0-1.268-.1h-12.132v9.6H1036.1a6.452,6.452,0,0,0,1.268-.1,1.6,1.6,0,0,0,.729-.326,1.072,1.072,0,0,0,.346-.634,5.523,5.523,0,0,0,.077-1.018Zm.039,11.787a5.285,5.285,0,0,0-.077-.98,1.158,1.158,0,0,0-.346-.652,1.482,1.482,0,0,0-.729-.346,6.529,6.529,0,0,0-1.267-.1h-12.172v10.6h12.094a7.09,7.09,0,0,0,1.306-.1,1.621,1.621,0,0,0,.768-.326,1.067,1.067,0,0,0,.346-.634,5.525,5.525,0,0,0,.077-1.017Z" transform="translate(-991.37 -67.345)" fill="#5a5b5e"/>
        <path id="Tracé_360" data-name="Tracé 360" d="M1053.732,94.416h-2.265q-.96,0-1.612-.038c-.487-.027-.908-.053-1.268-.078V92.189h13.169a6.625,6.625,0,0,0,1.268-.1,1.609,1.609,0,0,0,.729-.328,1.063,1.063,0,0,0,.346-.634,5.51,5.51,0,0,0,.077-1.017V83.626a5.274,5.274,0,0,0-.077-.979,1.069,1.069,0,0,0-.346-.634,1.784,1.784,0,0,0-.729-.346,5.455,5.455,0,0,0-1.268-.115l-8.6-.116a9.168,9.168,0,0,1-2.323-.249,3.327,3.327,0,0,1-1.5-.788,3.083,3.083,0,0,1-.806-1.381,7.588,7.588,0,0,1-.25-2.112V72.223a9.472,9.472,0,0,1,.231-2.265,3.009,3.009,0,0,1,.806-1.477,3.251,3.251,0,0,1,1.554-.788,11.107,11.107,0,0,1,2.476-.23h6.3q1.612,0,2.65.019c.691.013,1.24.031,1.651.058q.69.038,1.075.039v2.035h-11.864a6.7,6.7,0,0,0-1.248.094,1.529,1.529,0,0,0-.749.346,1.162,1.162,0,0,0-.345.654,5.349,5.349,0,0,0-.077.979v5.491a5.29,5.29,0,0,0,.077,1,1.057,1.057,0,0,0,.345.615,1.781,1.781,0,0,0,.749.345,5.441,5.441,0,0,0,1.248.116l8.409.116a11.106,11.106,0,0,1,2.476.229,3.354,3.354,0,0,1,1.554.769,2.889,2.889,0,0,1,.806,1.44,9.172,9.172,0,0,1,.231,2.246v5.606a9.614,9.614,0,0,1-.231,2.3,3.016,3.016,0,0,1-.806,1.478,3.121,3.121,0,0,1-1.554.768,12.106,12.106,0,0,1-2.476.211Z" transform="translate(-990.993 -67.346)" fill="#5a5b5e"/>
        <path id="Tracé_361" data-name="Tracé 361" d="M1092.184,94.3V81.475h-15.512V94.3h-2.457V67.538h2.457V79.287h15.512V67.538h2.457V94.3Z" transform="translate(-990.629 -67.345)" fill="#5a5b5e"/>
        <path id="Tracé_362" data-name="Tracé 362" d="M1107.8,94.494a11.56,11.56,0,0,1-2.515-.231,3.533,3.533,0,0,1-1.632-.787,3,3,0,0,1-.864-1.516,9.772,9.772,0,0,1-.25-2.42V72.3a9.778,9.778,0,0,1,.25-2.42,3.015,3.015,0,0,1,.864-1.517,3.542,3.542,0,0,1,1.632-.786,11.624,11.624,0,0,1,2.515-.231H1118.7a11.632,11.632,0,0,1,2.514.231,3.549,3.549,0,0,1,1.631.786,3.005,3.005,0,0,1,.864,1.478,9.171,9.171,0,0,1,.25,2.342V89.5a10.016,10.016,0,0,1-.25,2.458,3,3,0,0,1-.864,1.516,3.54,3.54,0,0,1-1.631.787,11.567,11.567,0,0,1-2.514.231ZM1121.5,71.572a2.079,2.079,0,0,0-.517-1.632,3.442,3.442,0,0,0-2.093-.442H1107.6a3.433,3.433,0,0,0-2.092.442,2.076,2.076,0,0,0-.519,1.632V90.194a2.071,2.071,0,0,0,.519,1.652,3.563,3.563,0,0,0,2.092.422h11.288a3.573,3.573,0,0,0,2.093-.422,2.074,2.074,0,0,0,.517-1.652Z" transform="translate(-990.231 -67.348)" fill="#5a5b5e"/>
        <path id="Tracé_363" data-name="Tracé 363" d="M1149.389,94.3l-5.913-11.826H1134.3V94.3h-2.457V67.538h14.244a11.114,11.114,0,0,1,2.476.229,3.371,3.371,0,0,1,1.555.769,2.9,2.9,0,0,1,.807,1.421,9,9,0,0,1,.23,2.227v5.567a9.424,9.424,0,0,1-.23,2.285,3.014,3.014,0,0,1-.807,1.459,3.118,3.118,0,0,1-1.555.768,12.043,12.043,0,0,1-2.476.211l5.99,11.826Zm-.691-22.537a5.4,5.4,0,0,0-.077-.98,1.234,1.234,0,0,0-.327-.653,1.4,1.4,0,0,0-.729-.345,6.6,6.6,0,0,0-1.248-.1H1134.3v10.6h12.017a6.518,6.518,0,0,0,1.248-.1,1.485,1.485,0,0,0,.729-.326,1.126,1.126,0,0,0,.327-.634,5.653,5.653,0,0,0,.077-1.018Z" transform="translate(-989.819 -67.345)" fill="#5a5b5e"/>
        <path id="Tracé_364" data-name="Tracé 364" d="M1158.877,94.3V67.538H1177v2.15h-15.665v9.6h12.478v2.188h-12.478v10.6h16.049V94.3Z" transform="translate(-989.439 -67.345)" fill="#5a5b5e"/>
      </g>
      <g id="Groupe_144" data-name="Groupe 144">
        <g id="Groupe_141" data-name="Groupe 141" transform="translate(0)">
          <g id="Groupe_140" data-name="Groupe 140">
            <path id="Tracé_365" data-name="Tracé 365" d="M966.867,69.524c-18.9-21.8-46.659-27.846-59.145-17.877-14.883,11.884-7.978,37.876,10.924,59.68s42.858,28.6,56.173,17.057S985.77,91.328,966.867,69.524Zm2.747,45.171c-8.484,7.328-27.615,4.589-41.784-11.757S908.482,67.11,919.64,58.2c9.36-7.474,30.167-2.944,44.337,13.4S978.62,106.918,969.614,114.7Z" transform="translate(-899.654 -46.985)" fill="url(#radial-gradient)"/>
            <path id="Tracé_366" data-name="Tracé 366" d="M960.637,74.461C949.3,61.385,932.722,57.7,925.3,63.627c-8.851,7.062-4.662,22.608,6.675,35.685s26.573,15.325,33.3,9.516C972.415,102.659,971.973,87.537,960.637,74.461Zm.93,28.622c-5.4,4.661-17.663,2.808-26.819-7.752s-12.567-23.093-5.466-28.757c5.957-4.75,19.306-1.74,28.462,8.821S967.3,98.135,961.567,103.083Z" transform="translate(-899.36 -46.789)" fill="url(#radial-gradient-2)"/>
            <path id="Tracé_367" data-name="Tracé 367" d="M955.3,75.717c-7.232-8.343-17.874-10.636-22.67-6.805-5.718,4.568-3.091,14.525,4.142,22.868s17.018,9.724,21.367,5.968C962.754,93.761,962.532,84.06,955.3,75.717Zm.434,18.1c-3.043,2.628-9.959,1.584-15.121-4.37s-7.084-13.018-3.08-16.211c3.359-2.679,10.884-.983,16.045,4.971S958.962,91.03,955.733,93.82Z" transform="translate(-899.234 -46.702)" fill="url(#radial-gradient-3)"/>
            <path id="Tracé_368" data-name="Tracé 368" d="M952.922,90.531c-2.09,1.805-6.874,1.049-10.47-3.1s-4.96-9.049-2.208-11.242c2.309-1.838,7.518-.628,11.114,3.521S955.142,88.615,952.922,90.531Z" transform="translate(-899.104 -46.586)" fill="url(#radial-gradient-4)"/>
          </g>
        </g>
        <g id="Groupe_142" data-name="Groupe 142" transform="translate(0 0.012)">
          <path id="Tracé_369" data-name="Tracé 369" d="M929.256,66.447c3.52-2.806,9.62-2.882,15.911-.313l-.654-3.31c-7.618-2.941-14.955-2.743-19.241.676-4.117,3.286-5.383,8.416-4.451,14.27L925.86,78.8C924.814,73.717,925.749,69.244,929.256,66.447Z" transform="translate(-899.36 -46.803)" fill="#8eb9d7" opacity="0.73"/>
          <path id="Tracé_370" data-name="Tracé 370" d="M937.506,73.113c1.97-1.571,5.377-1.594,8.9-.179l-.872-4.408c-5.079-2.085-10.055-2.035-12.929.261-3.038,2.426-3.7,6.378-2.59,10.8l5.772,1.177C934.962,77.618,935.374,74.812,937.506,73.113Z" transform="translate(-899.234 -46.715)" fill="#8eb9d7" opacity="0.73"/>
          <path id="Tracé_371" data-name="Tracé 371" d="M946.945,76.219c-2.642-1.251-5.266-1.318-6.727-.154s-1.735,3.1-1.157,5.275l9.271,1.891Z" transform="translate(-899.104 -46.6)" fill="#8eb9d7" opacity="0.73"/>
          <path id="Tracé_372" data-name="Tracé 372" d="M919.637,58.2c5.373-4.289,14.517-4.6,24.013-1.02L942.507,51.4c-13.63-5.938-27.1-5.893-34.788.244-6.5,5.187-8.838,13.064-7.847,22.106l14.179,2.892C912.752,69.091,914.325,62.442,919.637,58.2Z" transform="translate(-899.654 -46.996)" fill="#8eb9d7" opacity="0.73"/>
        </g>
        <g id="Groupe_143" data-name="Groupe 143" transform="translate(49.143 36.643)">
          <path id="Tracé_373" data-name="Tracé 373" d="M979.429,91.035l-5.9-1.5c2.877,10.339.956,19.682-4.727,24.59-3,2.595-7.354,3.9-12.331,3.829l3.736,15.393a23.154,23.154,0,0,0,13.827-5.465C983,120.115,984.852,106.053,979.429,91.035Z" transform="translate(-947.997 -83.03)" fill="#8eb9d7"/>
          <path id="Tracé_374" data-name="Tracé 374" d="M964.783,108.454c4.626-3.994,6.061-11.733,3.463-20.246l-4.225-1.076c1.809,6.566.614,12.461-2.963,15.549a11.427,11.427,0,0,1-7.672,2.4l1.55,6.383C958.917,111.549,962.391,110.521,964.783,108.454Z" transform="translate(-948.041 -83.064)" fill="#8eb9d7"/>
          <path id="Tracé_375" data-name="Tracé 375" d="M960.486,86.249l-3.329-.849c.758,3.42.089,6.454-1.8,8.086a6.5,6.5,0,0,1-4.432,1.333l1.1,4.531a9.157,9.157,0,0,0,5.75-1.918C960.424,95.144,961.417,90.961,960.486,86.249Z" transform="translate(-948.076 -83.088)" fill="#8eb9d7"/>
          <path id="Tracé_376" data-name="Tracé 376" d="M953.878,84.587l-5.763-1.467,1.965,8.1a4.247,4.247,0,0,0,2.622-.887C954.029,89.184,954.474,87.022,953.878,84.587Z" transform="translate(-948.115 -83.12)" fill="#8eb9d7"/>
        </g>
      </g>
    </g>
  </g>
</svg>
