<svg xmlns="http://www.w3.org/2000/svg" width="554.717" height="291.073" viewBox="0 0 554.717 291.073">
  <g id="undraw_contact_us_15o2_1_" data-name="undraw_contact_us_15o2 (1)" transform="translate(0 0.358)">
    <g id="Groupe_13495" data-name="Groupe 13495" transform="translate(215.18 19.886)" opacity="0.1">
      <ellipse id="Ellipse_489" data-name="Ellipse 489" cx="5.76" cy="7.541" rx="5.76" ry="7.541" transform="translate(21.708 155.674)" fill="#3f3d56"/>
      <path id="Tracé_23556" data-name="Tracé 23556" d="M530.34,449.142a9.11,9.11,0,0,0,1.2-4.611c0-4.165-2.581-7.541-5.765-7.541s-5.78,3.386-5.78,7.551a9.109,9.109,0,0,0,1.2,4.611,9.419,9.419,0,0,0,0,9.217,9.419,9.419,0,0,0,0,9.217A9.079,9.079,0,0,0,520,472.2c0,4.16,2.581,7.541,5.76,7.541s5.765-3.381,5.765-7.541a9.081,9.081,0,0,0-1.2-4.611,9.419,9.419,0,0,0,0-9.217,9.419,9.419,0,0,0,0-9.217Z" transform="translate(-498.312 -318.192)" fill="#3f3d56"/>
      <ellipse id="Ellipse_490" data-name="Ellipse 490" cx="5.76" cy="7.541" rx="5.76" ry="7.541" transform="translate(21.708 109.591)" fill="#3f3d56"/>
      <ellipse id="Ellipse_491" data-name="Ellipse 491" cx="5.76" cy="7.541" rx="5.76" ry="7.541" transform="translate(21.708 100.375)" fill="#3f3d56"/>
      <path id="Tracé_23557" data-name="Tracé 23557" d="M483.056,247.108a26.861,26.861,0,0,1-2.146-3.158l15.133-2.485-16.368.121a27.645,27.645,0,0,1-.506-21.865l21.961,11.393-20.245-14.89A27.6,27.6,0,1,1,526.436,247.1a27.6,27.6,0,0,1,3.148,5.031l-19.653,10.234,20.949-7.03a27.6,27.6,0,0,1-4.449,25.914,27.594,27.594,0,1,1-43.375,0,27.594,27.594,0,0,1,0-34.123Z" transform="translate(-477.149 -202.271)" fill="#01b6f1"/>
      <path id="Tracé_23558" data-name="Tracé 23558" d="M532.338,324.173a27.467,27.467,0,0,1-5.907,17.062,27.594,27.594,0,1,1-43.375,0C479.356,336.538,532.338,321.076,532.338,324.173Z" transform="translate(-477.149 -262.274)" opacity="0.1"/>
    </g>
    <g id="Groupe_13496" data-name="Groupe 13496" transform="translate(289.364 45.108)" opacity="0.1">
      <ellipse id="Ellipse_492" data-name="Ellipse 492" cx="4.307" cy="5.633" rx="4.307" ry="5.633" transform="translate(16.221 116.236)" fill="#3f3d56"/>
      <path id="Tracé_23559" data-name="Tracé 23559" d="M663.473,436.4a6.8,6.8,0,0,0,.9-3.442c0-3.113-1.928-5.638-4.3-5.638s-4.307,2.531-4.307,5.638a6.746,6.746,0,0,0,.9,3.442,7.035,7.035,0,0,0,0,6.888,7.035,7.035,0,0,0,0,6.888,6.746,6.746,0,0,0-.9,3.442c0,3.113,1.928,5.638,4.307,5.638s4.3-2.531,4.3-5.638a6.8,6.8,0,0,0-.9-3.442,7.086,7.086,0,0,0,0-6.888,7.086,7.086,0,0,0,0-6.888Z" transform="translate(-639.543 -338.638)" fill="#3f3d56"/>
      <ellipse id="Ellipse_493" data-name="Ellipse 493" cx="4.307" cy="5.633" rx="4.307" ry="5.633" transform="translate(16.221 81.799)" fill="#3f3d56"/>
      <ellipse id="Ellipse_494" data-name="Ellipse 494" cx="4.307" cy="5.633" rx="4.307" ry="5.633" transform="translate(16.221 74.911)" fill="#3f3d56"/>
      <path id="Tracé_23560" data-name="Tracé 23560" d="M628.134,285.511a19.74,19.74,0,0,1-1.6-2.359l11.312-1.858-12.233.091a20.67,20.67,0,0,1-.395-16.343l16.414,8.518-15.138-11.135a20.625,20.625,0,1,1,34.057,23.079,20.858,20.858,0,0,1,2.354,3.761l-14.678,7.627,15.655-5.254A20.63,20.63,0,0,1,660.551,311a20.62,20.62,0,1,1-32.392,0,20.62,20.62,0,0,1,0-25.5Z" transform="translate(-623.72 -252.103)" fill="#01b6f1"/>
      <path id="Tracé_23561" data-name="Tracé 23561" d="M664.969,343a20.534,20.534,0,0,1-4.413,12.749,20.62,20.62,0,1,1-32.392,0C625.39,352.246,664.969,340.691,664.969,343Z" transform="translate(-623.73 -296.846)" opacity="0.1"/>
    </g>
    <g id="Groupe_13497" data-name="Groupe 13497" transform="translate(497.798 -0.359)" opacity="0.1">
      <ellipse id="Ellipse_495" data-name="Ellipse 495" cx="5.76" cy="7.541" rx="5.76" ry="7.541" transform="translate(22.097 155.674)" fill="#3f3d56"/>
      <path id="Tracé_23562" data-name="Tracé 23562" d="M1080.394,409.142a9.111,9.111,0,0,1-1.2-4.611c0-4.165,2.581-7.541,5.765-7.541s5.76,3.376,5.76,7.541a9.109,9.109,0,0,1-1.2,4.611,9.419,9.419,0,0,1,0,9.217,9.419,9.419,0,0,1,0,9.217,9.079,9.079,0,0,1,1.2,4.611c0,4.16-2.581,7.541-5.76,7.541s-5.765-3.381-5.765-7.541a9.08,9.08,0,0,1,1.2-4.611,9.419,9.419,0,0,1,0-9.217A9.419,9.419,0,0,1,1080.394,409.142Z" transform="translate(-1057.097 -278.192)" fill="#3f3d56"/>
      <ellipse id="Ellipse_496" data-name="Ellipse 496" cx="5.76" cy="7.541" rx="5.76" ry="7.541" transform="translate(22.097 109.591)" fill="#3f3d56"/>
      <ellipse id="Ellipse_497" data-name="Ellipse 497" cx="5.76" cy="7.541" rx="5.76" ry="7.541" transform="translate(22.097 100.375)" fill="#3f3d56"/>
      <path id="Tracé_23563" data-name="Tracé 23563" d="M1084.959,207.109a26.869,26.869,0,0,0,2.146-3.158l-15.133-2.485,16.368.121a27.644,27.644,0,0,0,.506-21.865l-21.961,11.393,20.245-14.89a27.6,27.6,0,1,0-45.552,30.874,27.605,27.605,0,0,0-3.148,5.031l19.653,10.234-20.949-7.03a27.6,27.6,0,0,0,4.449,25.914,27.594,27.594,0,1,0,43.375,0,27.594,27.594,0,0,0,0-34.123Z" transform="translate(-1035.541 -162.271)" fill="#01b6f1"/>
      <path id="Tracé_23564" data-name="Tracé 23564" d="M1035.81,284.173a27.468,27.468,0,0,0,5.907,17.062,27.594,27.594,0,1,0,43.375,0C1088.791,296.538,1035.81,281.076,1035.81,284.173Z" transform="translate(-1035.673 -222.274)" opacity="0.1"/>
    </g>
    <g id="Groupe_13498" data-name="Groupe 13498" transform="translate(449.319 42.071)" opacity="0.1">
      <ellipse id="Ellipse_498" data-name="Ellipse 498" cx="4.307" cy="5.633" rx="4.307" ry="5.633" transform="translate(16.426 116.236)" fill="#3f3d56"/>
      <path id="Tracé_23565" data-name="Tracé 23565" d="M973.126,430.4a6.8,6.8,0,0,1-.9-3.442c0-3.113,1.928-5.638,4.3-5.638s4.307,2.531,4.307,5.638a6.746,6.746,0,0,1-.9,3.442,7.035,7.035,0,0,1,0,6.888,7.035,7.035,0,0,1,0,6.888,6.746,6.746,0,0,1,.9,3.442c0,3.113-1.928,5.638-4.307,5.638s-4.3-2.531-4.3-5.638a6.8,6.8,0,0,1,.9-3.442,7.085,7.085,0,0,1,0-6.888,7.086,7.086,0,0,1,0-6.888Z" transform="translate(-955.794 -332.638)" fill="#3f3d56"/>
      <ellipse id="Ellipse_499" data-name="Ellipse 499" cx="4.307" cy="5.633" rx="4.307" ry="5.633" transform="translate(16.426 81.799)" fill="#3f3d56"/>
      <ellipse id="Ellipse_500" data-name="Ellipse 500" cx="4.307" cy="5.633" rx="4.307" ry="5.633" transform="translate(16.426 74.911)" fill="#3f3d56"/>
      <path id="Tracé_23566" data-name="Tracé 23566" d="M976.6,279.511a19.738,19.738,0,0,0,1.6-2.359L966.9,275.295l12.233.091a20.67,20.67,0,0,0,.395-16.343l-16.414,8.518,15.138-11.135a20.625,20.625,0,1,0-34.057,23.079,20.844,20.844,0,0,0-2.354,3.761l14.678,7.627-15.624-5.249a20.63,20.63,0,0,0,3.325,19.365,20.62,20.62,0,1,0,32.392,0,20.619,20.619,0,0,0,0-25.5Z" transform="translate(-939.757 -246.103)" fill="#01b6f1"/>
      <path id="Tracé_23567" data-name="Tracé 23567" d="M939.79,337a20.534,20.534,0,0,0,4.414,12.749,20.62,20.62,0,1,0,32.392,0C979.369,346.246,939.79,334.691,939.79,337Z" transform="translate(-939.768 -290.846)" opacity="0.1"/>
    </g>
    <g id="Groupe_13499" data-name="Groupe 13499" transform="translate(3.699 -0.274)" opacity="0.1">
      <ellipse id="Ellipse_501" data-name="Ellipse 501" cx="5.76" cy="7.541" rx="5.76" ry="7.541" transform="translate(21.713 155.59)" fill="#3f3d56"/>
      <path id="Tracé_23568" data-name="Tracé 23568" d="M112.524,409.142a9.11,9.11,0,0,0,1.2-4.611c0-4.165-2.581-7.541-5.76-7.541s-5.76,3.376-5.76,7.541a9.11,9.11,0,0,0,1.2,4.611,9.449,9.449,0,0,0,0,9.217,9.449,9.449,0,0,0,0,9.217,9.075,9.075,0,0,0-1.2,4.611c0,4.16,2.576,7.541,5.76,7.541s5.775-3.371,5.775-7.531a9.08,9.08,0,0,0-1.2-4.611,9.419,9.419,0,0,0,0-9.217,9.419,9.419,0,0,0,0-9.217Z" transform="translate(-80.496 -278.277)" fill="#3f3d56"/>
      <ellipse id="Ellipse_502" data-name="Ellipse 502" cx="5.76" cy="7.541" rx="5.76" ry="7.541" transform="translate(21.713 109.507)" fill="#3f3d56"/>
      <ellipse id="Ellipse_503" data-name="Ellipse 503" cx="5.76" cy="7.541" rx="5.76" ry="7.541" transform="translate(21.713 100.29)" fill="#3f3d56"/>
      <path id="Tracé_23569" data-name="Tracé 23569" d="M65.226,207.191a27.5,27.5,0,0,1-2.146-3.158l15.138-2.485-16.383.147a27.645,27.645,0,0,1-.506-21.865L83.3,191.223,63.05,176.333A27.594,27.594,0,1,1,108.6,207.206a27.6,27.6,0,0,1,3.148,5.031L92.092,222.446l20.954-7.03a27.63,27.63,0,0,1-4.454,25.914,27.594,27.594,0,1,1-43.375,0,27.594,27.594,0,0,1,0-34.123Z" transform="translate(-59.309 -162.439)" fill="#01b6f1"/>
      <path id="Tracé_23570" data-name="Tracé 23570" d="M114.5,284.173a27.468,27.468,0,0,1-5.907,17.062,27.594,27.594,0,1,1-43.375,0C61.516,296.538,114.5,281.076,114.5,284.173Z" transform="translate(-59.309 -222.359)" opacity="0.1"/>
    </g>
    <g id="Groupe_13500" data-name="Groupe 13500" transform="translate(66.242 42.071)" opacity="0.1">
      <ellipse id="Ellipse_504" data-name="Ellipse 504" cx="4.307" cy="5.633" rx="4.307" ry="5.633" transform="translate(16.221 116.236)" fill="#3f3d56"/>
      <path id="Tracé_23571" data-name="Tracé 23571" d="M222.643,430.4a6.8,6.8,0,0,0,.9-3.442c0-3.113-1.923-5.638-4.3-5.638s-4.307,2.531-4.307,5.638a6.8,6.8,0,0,0,.9,3.442,7.035,7.035,0,0,0,0,6.888,7.035,7.035,0,0,0,0,6.888,6.8,6.8,0,0,0-.9,3.442c0,3.113,1.928,5.638,4.307,5.638s4.3-2.531,4.3-5.638a6.8,6.8,0,0,0-.9-3.442,7.086,7.086,0,0,0,0-6.888,7.086,7.086,0,0,0,0-6.888Z" transform="translate(-198.708 -332.638)" fill="#3f3d56"/>
      <ellipse id="Ellipse_505" data-name="Ellipse 505" cx="4.307" cy="5.633" rx="4.307" ry="5.633" transform="translate(16.221 81.799)" fill="#3f3d56"/>
      <ellipse id="Ellipse_506" data-name="Ellipse 506" cx="4.307" cy="5.633" rx="4.307" ry="5.633" transform="translate(16.221 74.911)" fill="#3f3d56"/>
      <path id="Tracé_23572" data-name="Tracé 23572" d="M187.294,279.511a20.347,20.347,0,0,1-1.6-2.359L197,275.295l-12.233.091a20.67,20.67,0,0,1-.395-16.343l16.414,8.518-15.138-11.135a20.625,20.625,0,1,1,34.057,23.079,20.307,20.307,0,0,1,2.353,3.761l-14.678,7.627,15.655-5.254A20.63,20.63,0,0,1,219.711,305a20.62,20.62,0,1,1-32.392,0,20.62,20.62,0,0,1,0-25.5Z" transform="translate(-182.88 -246.103)" fill="#01b6f1"/>
      <path id="Tracé_23573" data-name="Tracé 23573" d="M224.129,337a20.533,20.533,0,0,1-4.413,12.749,20.62,20.62,0,1,1-32.392,0C184.54,346.246,224.129,334.691,224.129,337Z" transform="translate(-182.89 -290.846)" opacity="0.1"/>
    </g>
    <ellipse id="Ellipse_507" data-name="Ellipse 507" cx="277.358" cy="4.484" rx="277.358" ry="4.484" transform="translate(0 244.926)" fill="#01b6f1" opacity="0.1"/>
    <ellipse id="Ellipse_508" data-name="Ellipse 508" cx="277.358" cy="4.484" rx="277.358" ry="4.484" transform="translate(0 281.747)" fill="#01b6f1" opacity="0.1"/>
    <ellipse id="Ellipse_509" data-name="Ellipse 509" cx="277.358" cy="4.484" rx="277.358" ry="4.484" transform="translate(0 168.08)" fill="#01b6f1" opacity="0.1"/>
    <ellipse id="Ellipse_510" data-name="Ellipse 510" cx="277.358" cy="4.484" rx="277.358" ry="4.484" transform="translate(0 206.5)" fill="#01b6f1" opacity="0.1"/>
    <path id="Tracé_23574" data-name="Tracé 23574" d="M833.711,260.969a9.262,9.262,0,0,0-5.365.587,7.921,7.921,0,0,1-6.448,0,9.05,9.05,0,0,0-7.592.147,4.677,4.677,0,0,1-2.181.547c-3.077,0-5.633-3.1-6.165-7.182a6.012,6.012,0,0,0,1.518-1.655,8.638,8.638,0,0,1,15.422-.056,5.912,5.912,0,0,0,5.107,2.8h.081C830.563,256.136,832.684,258.1,833.711,260.969Z" transform="translate(-424.359 -205.285)" fill="#01b6f1" opacity="0.1"/>
    <path id="Tracé_23575" data-name="Tracé 23575" d="M843.07,236.987l-4.97,3.148,3.037-5.486a4.91,4.91,0,0,0-3.006-1.068h-.081a5.744,5.744,0,0,1-1.012-.076l-1.711,1.068.724-1.316a5.967,5.967,0,0,1-2.951-2.237l-3.037,1.913,1.9-3.462a8.819,8.819,0,0,0-6.752-3.411,9.262,9.262,0,0,0-7.734,4.768,5.775,5.775,0,0,1-5.107,2.753h-.167c-3.462,0-6.266,3.923-6.266,8.761s2.8,8.766,6.266,8.766a4.753,4.753,0,0,0,2.181-.547,9.039,9.039,0,0,1,7.592-.152,7.87,7.87,0,0,0,6.448,0,9.07,9.07,0,0,1,7.521.147,4.707,4.707,0,0,0,2.156.536c3.462,0,6.266-3.928,6.266-8.766A11.1,11.1,0,0,0,843.07,236.987Z" transform="translate(-424.349 -194.133)" fill="#01b6f1" opacity="0.1"/>
    <path id="Tracé_23576" data-name="Tracé 23576" d="M424.315,259.169a6.5,6.5,0,0,0-3.761.41,5.527,5.527,0,0,1-4.51,0,6.317,6.317,0,0,0-5.309.106,3.351,3.351,0,0,1-1.518.38c-2.151,0-3.943-2.166-4.317-5.026a4.212,4.212,0,0,0,1.078-1.159,6.048,6.048,0,0,1,10.8-.04,4.145,4.145,0,0,0,3.578,1.964h.056C422.108,255.794,423.591,257.17,424.315,259.169Z" transform="translate(-226.287 -206.223)" fill="#01b6f1" opacity="0.1"/>
    <path id="Tracé_23577" data-name="Tracé 23577" d="M430.86,242.393l-3.477,2.207,2.111-3.842a3.417,3.417,0,0,0-2.1-.749h-.061a3.791,3.791,0,0,1-.719-.056l-1.179.749.506-.921a4.2,4.2,0,0,1-2.065-1.564l-2.111,1.336,1.336-2.419a6.18,6.18,0,0,0-4.727-2.394,6.474,6.474,0,0,0-5.411,3.34,4.049,4.049,0,0,1-3.578,1.928h-.116c-2.424,0-4.388,2.743-4.388,6.134s1.964,6.134,4.388,6.134a3.29,3.29,0,0,0,1.518-.385,6.327,6.327,0,0,1,5.3-.1,5.436,5.436,0,0,0,4.515.03,6.347,6.347,0,0,1,5.264.1,3.28,3.28,0,0,0,1.518.375c2.419,0,4.383-2.748,4.383-6.134a7.759,7.759,0,0,0-.911-3.771Z" transform="translate(-226.277 -198.42)" fill="#01b6f1" opacity="0.1"/>
    <path id="Tracé_23578" data-name="Tracé 23578" d="M321.59,337.579a6.489,6.489,0,0,1,3.755.41,5.537,5.537,0,0,0,4.515,0,6.337,6.337,0,0,1,5.309.1,3.274,3.274,0,0,0,1.518.385c2.151,0,3.943-2.171,4.312-5.031a4.125,4.125,0,0,1-1.073-1.159,6.054,6.054,0,0,0-10.8-.035,4.145,4.145,0,0,1-3.573,1.964H325.5C323.792,334.224,322.3,335.6,321.59,337.579Z" transform="translate(-185.143 -244.948)" fill="#01b6f1" opacity="0.1"/>
    <path id="Tracé_23579" data-name="Tracé 23579" d="M307.755,320.838l3.482,2.207-2.116-3.836a3.436,3.436,0,0,1,2.105-.754h.056a4.32,4.32,0,0,0,.724-.051l1.179.744-.506-.916a4.2,4.2,0,0,0,2.06-1.564L316.85,318l-1.316-2.424a6.175,6.175,0,0,1,4.727-2.389,6.48,6.48,0,0,1,5.41,3.34,4.049,4.049,0,0,0,3.573,1.928h.121c2.419,0,4.383,2.748,4.383,6.134s-1.964,6.134-4.383,6.134a3.285,3.285,0,0,1-1.518-.38,6.316,6.316,0,0,0-5.309-.106,5.5,5.5,0,0,1-2.267.506,5.568,5.568,0,0,1-2.247-.476,6.337,6.337,0,0,0-5.259.1,3.28,3.28,0,0,1-1.518.375c-2.424,0-4.388-2.743-4.388-6.134A7.815,7.815,0,0,1,307.755,320.838Z" transform="translate(-177.867 -237.164)" fill="#01b6f1" opacity="0.1"/>
    <path id="Tracé_23580" data-name="Tracé 23580" d="M710.768,600.3c1.321-2.45-.177-5.446-1.9-7.627s-3.826-4.454-3.781-7.233c.066-3.993,4.307-6.357,7.693-8.473a37.608,37.608,0,0,0,6.909-5.567,10.19,10.19,0,0,0,2.121-2.844,11.5,11.5,0,0,0,.638-5.061q-.218-8.549-.845-17.087" transform="translate(-374.542 -352.345)" fill="none" stroke="#3f3d56" stroke-miterlimit="10" stroke-width="4"/>
    <path id="Tracé_23581" data-name="Tracé 23581" d="M738.3,540.051a6.231,6.231,0,0,0-3.113-5.107l-1.4,2.758.046-3.34a6.23,6.23,0,1,0,4.464,5.689Z" transform="translate(-384.792 -346.27)" fill="#01b6f1"/>
    <path id="Tracé_23582" data-name="Tracé 23582" d="M717,620.361a6.23,6.23,0,0,1-11.762-2.531,6.072,6.072,0,0,1,.4-2.531,6.235,6.235,0,0,1,11.641.066l-3.892,3.168,4.282-1.012A6.2,6.2,0,0,1,717,620.361Z" transform="translate(-374.613 -384.409)" fill="#01b6f1"/>
    <path id="Tracé_23583" data-name="Tracé 23583" d="M716.044,593.114a6.23,6.23,0,0,1-1.974-12.223l-.036,2.566,1.412-2.794h0a6.232,6.232,0,0,1,.582,12.451Z" transform="translate(-376.73 -369.258)" fill="#01b6f1"/>
    <path id="Tracé_23584" data-name="Tracé 23584" d="M745.906,573.229a6.23,6.23,0,1,1,2.753-11.641l-1.1,3.037,2.242-2.217a6.23,6.23,0,0,1-3.917,10.816Z" transform="translate(-391.465 -359.44)" fill="#01b6f1"/>
    <path id="Tracé_23585" data-name="Tracé 23585" d="M737.448,545.046c-1.437.157-2.834.6-4.282.693a4.633,4.633,0,0,1-3.938-1.377,19.967,19.967,0,0,1-1.154-2.024,4.434,4.434,0,0,0-1.569-1.478A6.23,6.23,0,1,0,738.146,545C737.918,545.005,737.681,545.02,737.448,545.046Z" transform="translate(-384.782 -349.604)" opacity="0.1"/>
    <path id="Tracé_23586" data-name="Tracé 23586" d="M745.933,576.708a6.23,6.23,0,0,1-5.927-8.888,4.611,4.611,0,0,1,1.25,1.255,21.122,21.122,0,0,0,1.235,2.06,5.082,5.082,0,0,0,4.135,1.442c1.5-.076,2.956-.506,4.454-.633.208,0,.415-.03.628-.035A6.231,6.231,0,0,1,745.933,576.708Z" transform="translate(-391.491 -362.919)" opacity="0.1"/>
    <path id="Tracé_23587" data-name="Tracé 23587" d="M716.046,596.711a6.23,6.23,0,0,1-5.977-8.771,5.06,5.06,0,0,1,1.321,1.265,20.887,20.887,0,0,0,1.351,2.1,5.643,5.643,0,0,0,4.408,1.518c1.589-.066,3.037-.41,4.555-.506a6.241,6.241,0,0,1-5.658,4.393Z" transform="translate(-376.732 -372.856)" opacity="0.1"/>
    <path id="Tracé_23588" data-name="Tracé 23588" d="M717,624.231a6.23,6.23,0,0,1-11.762-2.531,6.073,6.073,0,0,1,.4-2.531,6.217,6.217,0,0,1,1.367,1.22c.592.719.982,1.518,1.67,2.212a7.786,7.786,0,0,0,5.157,1.812,26.165,26.165,0,0,0,3.163-.182Z" transform="translate(-374.613 -388.279)" opacity="0.1"/>
    <path id="Tracé_23589" data-name="Tracé 23589" d="M100.768,528.3c1.321-2.45-.177-5.446-1.9-7.627s-3.826-4.464-3.781-7.233c.066-3.993,4.307-6.357,7.693-8.473a37.6,37.6,0,0,0,6.909-5.567,10.188,10.188,0,0,0,2.121-2.844,11.5,11.5,0,0,0,.638-5.061q-.223-8.549-.845-17.087" transform="translate(-73.28 -316.786)" fill="none" stroke="#3f3d56" stroke-miterlimit="10" stroke-width="4"/>
    <path id="Tracé_23590" data-name="Tracé 23590" d="M128.3,468.051a6.23,6.23,0,0,0-3.113-5.107l-1.4,2.758.046-3.34a6.23,6.23,0,1,0,4.464,5.689Z" transform="translate(-83.53 -310.711)" fill="#01b6f1"/>
    <path id="Tracé_23591" data-name="Tracé 23591" d="M107,548.361a6.23,6.23,0,0,1-11.762-2.531,6.073,6.073,0,0,1,.4-2.531,6.236,6.236,0,0,1,11.641.066l-3.892,3.168,4.282-1.012A6.2,6.2,0,0,1,107,548.361Z" transform="translate(-73.351 -348.851)" fill="#01b6f1"/>
    <path id="Tracé_23592" data-name="Tracé 23592" d="M106.044,521.114a6.23,6.23,0,0,1-1.974-12.223l-.035,2.566,1.412-2.794h0a6.232,6.232,0,1,1,.582,12.451Z" transform="translate(-75.469 -333.7)" fill="#01b6f1"/>
    <path id="Tracé_23593" data-name="Tracé 23593" d="M135.906,501.229a6.23,6.23,0,1,1,2.753-11.641l-1.1,3.037,2.242-2.217a6.23,6.23,0,0,1-3.917,10.816Z" transform="translate(-90.203 -323.882)" fill="#01b6f1"/>
    <path id="Tracé_23594" data-name="Tracé 23594" d="M127.448,473.046c-1.437.157-2.834.6-4.282.693a4.633,4.633,0,0,1-3.938-1.377,19.979,19.979,0,0,1-1.154-2.025,4.434,4.434,0,0,0-1.569-1.478A6.23,6.23,0,1,0,128.146,473C127.918,473.005,127.681,473.02,127.448,473.046Z" transform="translate(-83.521 -314.045)" opacity="0.1"/>
    <path id="Tracé_23595" data-name="Tracé 23595" d="M135.933,504.708a6.23,6.23,0,0,1-5.927-8.888,4.61,4.61,0,0,1,1.25,1.255,21.123,21.123,0,0,0,1.235,2.06,5.083,5.083,0,0,0,4.135,1.442c1.5-.076,2.956-.506,4.454-.633.208,0,.415-.03.628-.035A6.23,6.23,0,0,1,135.933,504.708Z" transform="translate(-90.23 -327.36)" opacity="0.1"/>
    <path id="Tracé_23596" data-name="Tracé 23596" d="M106.046,524.711a6.23,6.23,0,0,1-5.977-8.771,5.062,5.062,0,0,1,1.321,1.265,20.868,20.868,0,0,0,1.351,2.1,5.642,5.642,0,0,0,4.408,1.518c1.589-.066,3.037-.41,4.555-.506A6.24,6.24,0,0,1,106.046,524.711Z" transform="translate(-75.471 -337.297)" opacity="0.1"/>
    <path id="Tracé_23597" data-name="Tracé 23597" d="M107,552.231A6.23,6.23,0,0,1,95.241,549.7a6.073,6.073,0,0,1,.4-2.531,6.222,6.222,0,0,1,1.367,1.22c.592.719.982,1.518,1.67,2.212a7.786,7.786,0,0,0,5.157,1.812A26.165,26.165,0,0,0,107,552.231Z" transform="translate(-73.351 -352.721)" opacity="0.1"/>
    <path id="Tracé_23598" data-name="Tracé 23598" d="M501.105,445.942c-1.321-2.445.177-5.441,1.9-7.622s3.821-4.454,3.776-7.233c-.061-4-4.3-6.357-7.693-8.473a37.452,37.452,0,0,1-6.9-5.567,10.01,10.01,0,0,1-2.126-2.839,11.664,11.664,0,0,1-.638-5.061q.228-8.549.845-17.087" transform="translate(-268.023 -276.116)" fill="none" stroke="#3f3d56" stroke-miterlimit="10" stroke-width="4"/>
    <path id="Tracé_23599" data-name="Tracé 23599" d="M478.383,385.691a6.225,6.225,0,0,1,3.108-5.107l1.4,2.758-.04-3.34a6.389,6.389,0,0,1,2.05-.248,6.23,6.23,0,1,1-6.514,5.937Z" transform="translate(-262.575 -270.036)" fill="#01b6f1"/>
    <path id="Tracé_23600" data-name="Tracé 23600" d="M499.668,465.952a6.23,6.23,0,1,0-.3-5.016l3.892,3.168-4.282-1.012a6.2,6.2,0,0,0,.688,2.86Z" transform="translate(-272.751 -308.126)" fill="#01b6f1"/>
    <path id="Tracé_23601" data-name="Tracé 23601" d="M500.625,438.753A6.23,6.23,0,0,0,502.6,426.53l.03,2.566-1.412-2.794h0a6.23,6.23,0,0,0-6.529,5.917,6.155,6.155,0,0,0,.268,2.126A6.225,6.225,0,0,0,500.625,438.753Z" transform="translate(-270.63 -293.024)" fill="#01b6f1"/>
    <path id="Tracé_23602" data-name="Tracé 23602" d="M470.729,418.849a6.23,6.23,0,1,0-2.758-11.641l1.1,3.037-2.267-2.171a6.18,6.18,0,0,0-2.025,4.3,6.028,6.028,0,0,0,.157,1.716A6.225,6.225,0,0,0,470.729,418.849Z" transform="translate(-255.857 -283.196)" fill="#01b6f1"/>
    <path id="Tracé_23603" data-name="Tracé 23603" d="M479.368,390.686c1.437.157,2.834.6,4.277.693A4.654,4.654,0,0,0,487.588,390a19.936,19.936,0,0,0,1.149-2.024,4.449,4.449,0,0,1,1.574-1.478,6.23,6.23,0,1,1-11.641,4.135C478.9,390.64,479.131,390.66,479.368,390.686Z" transform="translate(-262.72 -273.37)" opacity="0.1"/>
    <path id="Tracé_23604" data-name="Tracé 23604" d="M470.9,422.328a6.235,6.235,0,0,0,5.927-8.888,4.632,4.632,0,0,0-1.255,1.255,21.119,21.119,0,0,1-1.235,2.06,5.066,5.066,0,0,1-4.13,1.443c-1.5-.076-2.956-.506-4.454-.633-.208,0-.42-.03-.628-.035A6.225,6.225,0,0,0,470.9,422.328Z" transform="translate(-256.033 -286.675)" opacity="0.1"/>
    <path id="Tracé_23605" data-name="Tracé 23605" d="M500.9,442.351a6.225,6.225,0,0,0,5.977-8.771,4.975,4.975,0,0,0-1.316,1.265,20.868,20.868,0,0,1-1.351,2.1,5.653,5.653,0,0,1-4.413,1.518c-1.594-.066-3.037-.41-4.555-.506A6.225,6.225,0,0,0,500.9,442.351Z" transform="translate(-270.904 -296.622)" opacity="0.1"/>
    <path id="Tracé_23606" data-name="Tracé 23606" d="M500.34,469.871A6.23,6.23,0,0,0,511.7,464.81a5.983,5.983,0,0,0-1.367,1.22c-.592.719-1.012,1.518-1.67,2.212a7.8,7.8,0,0,1-5.163,1.812A27.3,27.3,0,0,1,500.34,469.871Z" transform="translate(-273.422 -312.045)" opacity="0.1"/>
    <circle id="Ellipse_511" data-name="Ellipse 511" cx="50.593" cy="50.593" r="50.593" transform="translate(344.051 69.78)" fill="#3f3d56"/>
    <path id="Tracé_23607" data-name="Tracé 23607" d="M830.947,391.356a38.333,38.333,0,0,0-8.1-5.411c-2.424-1.164-3.315-1.144-5.031.1-1.427,1.012-2.354,1.989-3.993,1.63s-4.889-2.809-8.032-5.942-5.583-6.362-5.932-8.027.612-2.571,1.635-4c1.235-1.716,1.27-2.607.1-5.031a38.815,38.815,0,0,0-5.416-8.1c-1.777-1.771-2.161-1.382-3.133-1.012a18.125,18.125,0,0,0-2.87,1.518,8.659,8.659,0,0,0-3.442,3.639c-.693,1.478-1.478,4.221,2.556,11.4a63.617,63.617,0,0,0,11.185,14.916h0a63.71,63.71,0,0,0,14.966,11.206c7.177,4.049,9.925,3.244,11.4,2.556a8.5,8.5,0,0,0,3.634-3.442,17.879,17.879,0,0,0,1.518-2.87C832.329,393.518,832.724,393.123,830.947,391.356Z" transform="translate(-414.586 -257.936)" fill="#01b6f1"/>
    <path id="Tracé_23608" data-name="Tracé 23608" d="M782.318,300.86a50.613,50.613,0,1,0,50.588,50.6A50.613,50.613,0,0,0,782.318,300.86Zm0,94.454a43.866,43.866,0,1,1,43.866-43.866A43.866,43.866,0,0,1,782.318,395.314Z" transform="translate(-387.675 -231.075)" opacity="0.1"/>
    <circle id="Ellipse_512" data-name="Ellipse 512" cx="50.593" cy="50.593" r="50.593" transform="translate(227.819 146.625)" fill="#3f3d56"/>
    <path id="Tracé_23609" data-name="Tracé 23609" d="M602.288,522.335l-15.148,15.412a.273.273,0,0,0,0,.395l10.629,11.3a1.829,1.829,0,1,1-2.586,2.586l-10.573-11.261a.289.289,0,0,0-.4,0l-2.576,2.6a11.322,11.322,0,0,1-8.1,3.406,11.57,11.57,0,0,1-8.24-3.5l-2.475-2.531a.289.289,0,0,0-.4,0l-10.548,11.236a1.829,1.829,0,1,1-2.586-2.586l10.588-11.276a.3.3,0,0,0,0-.395L544.716,522.31a.278.278,0,0,0-.476.2v30.838a4.515,4.515,0,0,0,4.5,4.5h49.535a4.515,4.515,0,0,0,4.5-4.5V522.533a.278.278,0,0,0-.486-.2Z" transform="translate(-295.103 -340.402)" fill="#01b6f1"/>
    <path id="Tracé_23610" data-name="Tracé 23610" d="M575.2,538.377a7.663,7.663,0,0,0,5.527-2.278l22.062-22.457A4.4,4.4,0,0,0,600,512.63h-49.57a4.373,4.373,0,0,0-2.784,1.012L569.717,536.1A7.633,7.633,0,0,0,575.2,538.377Z" transform="translate(-296.787 -335.662)" fill="#01b6f1"/>
    <path id="Tracé_23611" data-name="Tracé 23611" d="M551.408,452.69A50.613,50.613,0,1,0,602,503.286,50.613,50.613,0,0,0,551.408,452.69Zm0,94.454a43.866,43.866,0,1,1,43.866-43.866,43.866,43.866,0,0,1-43.866,43.866Z" transform="translate(-273.635 -306.06)" opacity="0.1"/>
    <circle id="Ellipse_513" data-name="Ellipse 513" cx="50.593" cy="50.593" r="50.593" transform="translate(107.75 108.843)" fill="#3f3d56"/>
    <path id="Tracé_23612" data-name="Tracé 23612" d="M345.169,430.16,325,476.693l1.883,1.883,18.291-8.068,18.292,8.068,1.883-1.883Z" transform="translate(-186.827 -294.933)" fill="#01b6f1"/>
    <path id="Tracé_23613" data-name="Tracé 23613" d="M315.438,378a50.583,50.583,0,1,0,.008,0Zm0,94.454a36.1,36.1,0,1,1,.005.02Z" transform="translate(-157.096 -269.172)" opacity="0.1"/>
    <path id="Tracé_23642" data-name="Tracé 23642" d="M882.848,524.418c1.321-2.445-.177-5.446-1.9-7.627s-3.821-4.449-3.776-7.233c.061-3.993,4.3-6.352,7.693-8.473a37.4,37.4,0,0,0,6.9-5.567,10.086,10.086,0,0,0,2.126-2.839,11.664,11.664,0,0,0,.638-5.061q-.223-8.554-.845-17.087" transform="translate(-459.527 -314.87)" fill="none" stroke="#3f3d56" stroke-miterlimit="10" stroke-width="4"/>
    <path id="Tracé_23643" data-name="Tracé 23643" d="M910.367,464.135a6.221,6.221,0,0,0-3.108-5.1l-1.4,2.758.04-3.34a6.114,6.114,0,0,0-2.05-.248,6.23,6.23,0,1,0,6.514,5.932Z" transform="translate(-469.772 -308.778)" fill="#01b6f1"/>
    <path id="Tracé_23644" data-name="Tracé 23644" d="M889.084,544.4a6.23,6.23,0,1,1,.3-5.021l-3.892,3.168,4.282-1.012a6.194,6.194,0,0,1-.688,2.865Z" transform="translate(-459.598 -346.868)" fill="#01b6f1"/>
    <path id="Tracé_23645" data-name="Tracé 23645" d="M888.118,517.2a6.23,6.23,0,0,1-1.979-12.223l-.03,2.566,1.412-2.789h0A6.232,6.232,0,1,1,888.1,517.2Z" transform="translate(-461.71 -331.769)" fill="#01b6f1"/>
    <path id="Tracé_23646" data-name="Tracé 23646" d="M917.981,497.319a6.23,6.23,0,1,1,2.758-11.641l-1.1,3.037,2.267-2.176a6.2,6.2,0,0,1,2.024,4.3,6.013,6.013,0,0,1-.157,1.716A6.231,6.231,0,0,1,917.981,497.319Z" transform="translate(-476.45 -321.95)" fill="#01b6f1"/>
    <path id="Tracé_23647" data-name="Tracé 23647" d="M909.526,469.126c-1.437.162-2.839.607-4.282.7a4.642,4.642,0,0,1-3.943-1.382,19.358,19.358,0,0,1-1.149-2.025,4.479,4.479,0,0,0-1.569-1.478,6.23,6.23,0,1,0,11.641,4.135C909.991,469.085,909.759,469.1,909.526,469.126Z" transform="translate(-469.766 -312.109)" opacity="0.1"/>
    <path id="Tracé_23648" data-name="Tracé 23648" d="M918.006,500.8a6.235,6.235,0,0,1-5.927-8.888,4.611,4.611,0,0,1,1.255,1.25,19.961,19.961,0,0,0,1.235,2.06,5.069,5.069,0,0,0,4.13,1.448c1.5-.071,2.956-.506,4.454-.633.207,0,.42-.035.628-.04A6.23,6.23,0,0,1,918.006,500.8Z" transform="translate(-476.475 -325.429)" opacity="0.1"/>
    <path id="Tracé_23649" data-name="Tracé 23649" d="M888.118,520.781A6.225,6.225,0,0,1,882.141,512a5.138,5.138,0,0,1,1.316,1.265c.506.683.784,1.473,1.351,2.1a5.768,5.768,0,0,0,4.413,1.549c1.594-.035,3.037-.415,4.555-.531A6.23,6.23,0,0,1,888.118,520.781Z" transform="translate(-461.71 -335.351)" opacity="0.1"/>
    <path id="Tracé_23650" data-name="Tracé 23650" d="M889.118,548.321a6.236,6.236,0,0,1-11.363-5.061,6.1,6.1,0,0,1,1.367,1.22c.6.724.987,1.518,1.67,2.217a7.826,7.826,0,0,0,5.163,1.812,27.287,27.287,0,0,0,3.163-.187Z" transform="translate(-459.633 -350.79)" opacity="0.1"/>
    <path id="Tracé_23651" data-name="Tracé 23651" d="M1041.848,676.417c1.321-2.445-.177-5.446-1.9-7.627s-3.821-4.449-3.776-7.233c.061-3.993,4.3-6.352,7.693-8.473a37.4,37.4,0,0,0,6.9-5.567,10.087,10.087,0,0,0,2.126-2.839,11.666,11.666,0,0,0,.638-5.061q-.218-8.554-.845-17.087" transform="translate(-538.053 -389.939)" fill="none" stroke="#3f3d56" stroke-miterlimit="10" stroke-width="4"/>
    <path id="Tracé_23652" data-name="Tracé 23652" d="M1069.392,616.136a6.22,6.22,0,0,0-3.108-5.1l-1.4,2.758.04-3.34a6.114,6.114,0,0,0-2.025-.248,6.23,6.23,0,1,0,6.514,5.932Z" transform="translate(-548.323 -383.848)" fill="#01b6f1"/>
    <path id="Tracé_23653" data-name="Tracé 23653" d="M1048.083,696.4a6.23,6.23,0,1,1,.3-5.021l-3.892,3.168,4.282-1.012a6.194,6.194,0,0,1-.688,2.865Z" transform="translate(-538.124 -421.937)" fill="#01b6f1"/>
    <path id="Tracé_23654" data-name="Tracé 23654" d="M1047.118,669.2a6.23,6.23,0,0,1-1.979-12.223l-.03,2.566,1.412-2.789h0a6.232,6.232,0,1,1,.582,12.451Z" transform="translate(-540.235 -406.837)" fill="#01b6f1"/>
    <path id="Tracé_23655" data-name="Tracé 23655" d="M1076.981,649.319a6.23,6.23,0,1,1,2.758-11.641l-1.1,3.037,2.267-2.176a6.2,6.2,0,0,1,2.025,4.3,6.024,6.024,0,0,1-.157,1.716A6.231,6.231,0,0,1,1076.981,649.319Z" transform="translate(-554.975 -397.019)" fill="#01b6f1"/>
    <path id="Tracé_23656" data-name="Tracé 23656" d="M1068.526,621.126c-1.437.162-2.839.607-4.282.7a4.642,4.642,0,0,1-3.943-1.382,19.325,19.325,0,0,1-1.149-2.024,4.48,4.48,0,0,0-1.569-1.478,6.23,6.23,0,1,0,11.641,4.135C1068.992,621.085,1068.759,621.1,1068.526,621.126Z" transform="translate(-548.292 -387.178)" opacity="0.1"/>
    <path id="Tracé_23657" data-name="Tracé 23657" d="M1077.006,652.8a6.236,6.236,0,0,1-5.927-8.888,4.613,4.613,0,0,1,1.255,1.25,19.949,19.949,0,0,0,1.235,2.06,5.069,5.069,0,0,0,4.13,1.448c1.5-.071,2.956-.506,4.454-.633.208,0,.42-.035.628-.04A6.231,6.231,0,0,1,1077.006,652.8Z" transform="translate(-555 -400.498)" opacity="0.1"/>
    <path id="Tracé_23658" data-name="Tracé 23658" d="M1047.119,672.781a6.225,6.225,0,0,1-5.977-8.781,5.138,5.138,0,0,1,1.316,1.265c.506.683.785,1.473,1.352,2.1a5.767,5.767,0,0,0,4.413,1.549c1.594-.035,3.037-.415,4.555-.531A6.23,6.23,0,0,1,1047.119,672.781Z" transform="translate(-540.236 -410.42)" opacity="0.1"/>
    <path id="Tracé_23659" data-name="Tracé 23659" d="M1048.118,700.321a6.236,6.236,0,0,1-11.363-5.061,6.1,6.1,0,0,1,1.367,1.22c.6.724,1.012,1.518,1.67,2.217a7.826,7.826,0,0,0,5.162,1.812A27.27,27.27,0,0,0,1048.118,700.321Z" transform="translate(-538.158 -425.858)" opacity="0.1"/>
  </g>
</svg>
