<svg id="Groupe_1290" data-name="Groupe 1290" xmlns="http://www.w3.org/2000/svg" xmlns:xlink="http://www.w3.org/1999/xlink" width="596.022" height="457.854" viewBox="0 0 596.022 457.854">
  <defs>
    <radialGradient id="radial-gradient" cx="0.5" cy="0.5" r="0.464" gradientTransform="matrix(0.892, 0, 0, 0.877, 0.054, -0.053)" gradientUnits="objectBoundingBox">
      <stop offset="0" stop-color="#3e84ff"/>
      <stop offset="0.04" stop-color="#4080ff" stop-opacity="0.949"/>
      <stop offset="0.315" stop-color="#5269ff" stop-opacity="0.616"/>
      <stop offset="0.558" stop-color="#6057ff" stop-opacity="0.353"/>
      <stop offset="0.76" stop-color="#6b4aff" stop-opacity="0.161"/>
      <stop offset="0.913" stop-color="#7142ff" stop-opacity="0.043"/>
      <stop offset="1" stop-color="#7440ff" stop-opacity="0"/>
    </radialGradient>
    <linearGradient id="linear-gradient" x1="0.367" y1="-0.858" x2="0.753" y2="3.077" gradientUnits="objectBoundingBox">
      <stop offset="0" stop-color="#ffdf3e"/>
      <stop offset="1" stop-color="#7440ff"/>
    </linearGradient>
    <radialGradient id="radial-gradient-2" cx="0.5" cy="0.5" r="0.5" gradientUnits="objectBoundingBox">
      <stop offset="0" stop-color="#fff"/>
      <stop offset="1"/>
    </radialGradient>
    <linearGradient id="linear-gradient-2" x1="0.5" y1="-4.596" x2="0.5" y2="12.452" gradientUnits="objectBoundingBox">
      <stop offset="0" stop-color="#3e84ff"/>
      <stop offset="1" stop-color="#7440ff"/>
    </linearGradient>
    <linearGradient id="linear-gradient-3" x1="3.339" y1="-1.492" x2="-1.336" y2="2.121" xlink:href="#linear-gradient-2"/>
    <linearGradient id="linear-gradient-4" x1="2.018" y1="-0.877" x2="-2.656" y2="2.737" xlink:href="#linear-gradient-2"/>
    <linearGradient id="linear-gradient-5" x1="2.738" y1="-0.952" x2="-2.015" y2="2.132" xlink:href="#linear-gradient-2"/>
    <linearGradient id="linear-gradient-6" x1="0" y1="0.5" x2="1" y2="0.5" xlink:href="#linear-gradient-2"/>
    <linearGradient id="linear-gradient-7" x1="0.503" y1="1.044" x2="0.475" y2="-0.036" xlink:href="#linear-gradient-2"/>
    <linearGradient id="linear-gradient-8" x1="0.611" y1="-0.09" x2="0.518" y2="0.803" gradientUnits="objectBoundingBox">
      <stop offset="0" stop-color="#2b2b2b"/>
      <stop offset="1" stop-color="#111"/>
    </linearGradient>
    <linearGradient id="linear-gradient-9" x1="0.107" y1="1.416" x2="0.758" y2="0.153" xlink:href="#linear-gradient-2"/>
    <linearGradient id="linear-gradient-10" x1="0.781" y1="-0.158" x2="0.2" y2="1.065" gradientUnits="objectBoundingBox">
      <stop offset="0" stop-color="#f78b7c"/>
      <stop offset="1" stop-color="#ffb7a9"/>
    </linearGradient>
    <linearGradient id="linear-gradient-11" x1="0.263" y1="-0.14" x2="0.628" y2="0.844" xlink:href="#linear-gradient-2"/>
    <linearGradient id="linear-gradient-12" x1="0.587" y1="0.134" x2="0.435" y2="0.91" xlink:href="#linear-gradient-10"/>
    <linearGradient id="linear-gradient-13" x1="0.447" y1="0.278" x2="0.554" y2="0.932" xlink:href="#linear-gradient-8"/>
    <linearGradient id="linear-gradient-14" x1="1.171" y1="1.36" x2="0.294" y2="0.395" xlink:href="#linear-gradient-2"/>
    <linearGradient id="linear-gradient-15" x1="0.881" y1="-0.355" x2="0.437" y2="0.904" xlink:href="#linear-gradient-10"/>
    <linearGradient id="linear-gradient-16" x1="0.507" y1="1.177" x2="0.478" y2="0.097" xlink:href="#linear-gradient-2"/>
    <linearGradient id="linear-gradient-17" x1="0.483" y1="-0.344" x2="0.496" y2="0.313" gradientUnits="objectBoundingBox">
      <stop offset="0" stop-color="#6d5bd8"/>
      <stop offset="1" stop-color="#c7cfff"/>
    </linearGradient>
    <linearGradient id="linear-gradient-18" x1="1.432" y1="-0.291" x2="0.094" y2="0.793" xlink:href="#linear-gradient-17"/>
    <linearGradient id="linear-gradient-19" x1="-0.393" y1="-0.137" x2="0.88" y2="0.751" xlink:href="#linear-gradient-17"/>
    <linearGradient id="linear-gradient-20" x1="0.483" y1="-0.353" x2="0.496" y2="0.304" xlink:href="#linear-gradient-17"/>
    <linearGradient id="linear-gradient-21" x1="0.788" y1="3.21" x2="0.297" y2="-1.41" xlink:href="#linear-gradient-2"/>
    <linearGradient id="linear-gradient-22" x1="2.068" y1="5.151" x2="-0.685" y2="-3.013" xlink:href="#linear-gradient-2"/>
    <radialGradient id="radial-gradient-3" r="0.464" gradientTransform="matrix(0.892, 0, 0, 0.877, 0.055, 0.06)" xlink:href="#radial-gradient"/>
    <linearGradient id="linear-gradient-23" x1="0.233" y1="-0.524" x2="0.737" y2="1.409" gradientUnits="objectBoundingBox">
      <stop offset="0" stop-color="#ec3eff"/>
      <stop offset="1" stop-color="#7440ff"/>
    </linearGradient>
    <radialGradient id="radial-gradient-4" cx="0.5" cy="0.5" r="0.5" gradientTransform="translate(0)" xlink:href="#radial-gradient-2"/>
    <radialGradient id="radial-gradient-5" cx="0.5" cy="0.5" r="0.5" gradientTransform="translate(0.231 -0.154) rotate(22.628)" xlink:href="#radial-gradient-2"/>
    <radialGradient id="radial-gradient-6" cx="-0.269" cy="2.003" r="2.086" gradientTransform="translate(0.1) scale(0.8 1)" gradientUnits="objectBoundingBox">
      <stop offset="0" stop-color="#f0f"/>
      <stop offset="1" stop-color="aqua" stop-opacity="0"/>
    </radialGradient>
    <linearGradient id="linear-gradient-24" x1="1.008" y1="-0.039" x2="0.32" y2="0.792" xlink:href="#linear-gradient-2"/>
    <linearGradient id="linear-gradient-25" x1="0.101" y1="-0.031" x2="0.702" y2="1.199" xlink:href="#linear-gradient-2"/>
  </defs>
  <g id="Groupe_382" data-name="Groupe 382" transform="translate(45.248 11.113)">
    <path id="Tracé_21934" data-name="Tracé 21934" d="M614.549,374.04c-8.018,15.121-15.847,28.7-22.3,39.481-9.334,15.6-15.787,25.32-15.787,25.32H229.65a12.7,12.7,0,0,1-12.691-13.313,12.461,12.461,0,0,1,4.083-8.6A13.257,13.257,0,0,1,230,413.443a7.573,7.573,0,0,0,4.62-13.573c-3.417-2.638-7.154-5.658-11.124-9.091a275.982,275.982,0,0,1-24.637-24.109,272.588,272.588,0,0,1-18.356-22.664H180.5a260.7,260.7,0,0,1-33.036-61.253c27.275,27.422,67.327,55.959,117.871,59.324C365.426,348.756,553.1,162.755,634.852,195.271,686.918,215.99,648.969,309.145,614.549,374.04Z" transform="translate(-147.462 7.898)" opacity="0.08" style="mix-blend-mode: overlay;isolation: isolate"/>
    <g id="Groupe_378" data-name="Groupe 378" transform="translate(45.835 294.535)">
      <g id="Groupe_376" data-name="Groupe 376" transform="translate(17.756 0)">
        <rect id="Rectangle_14" data-name="Rectangle 14" width="31.693" height="11.863" transform="translate(67.204 11.863) rotate(180)" opacity="0.25" style="mix-blend-mode: overlay;isolation: isolate"/>
        <rect id="Rectangle_15" data-name="Rectangle 15" width="31.693" height="11.863" transform="translate(31.693 11.863) rotate(180)" opacity="0.25" style="mix-blend-mode: overlay;isolation: isolate"/>
      </g>
      <g id="Groupe_377" data-name="Groupe 377" transform="translate(0 16.702)">
        <rect id="Rectangle_16" data-name="Rectangle 16" width="31.693" height="11.864" transform="translate(67.204 11.864) rotate(180)" fill="#fff" opacity="0.25" style="mix-blend-mode: overlay;isolation: isolate"/>
        <rect id="Rectangle_17" data-name="Rectangle 17" width="31.693" height="11.864" transform="translate(31.693 11.864) rotate(180)" fill="#fff" opacity="0.25" style="mix-blend-mode: overlay;isolation: isolate"/>
      </g>
    </g>
    <g id="Groupe_381" data-name="Groupe 381" transform="translate(316.808)">
      <g id="Groupe_379" data-name="Groupe 379">
        <rect id="Rectangle_18" data-name="Rectangle 18" width="31.693" height="11.863" opacity="0.25" style="mix-blend-mode: overlay;isolation: isolate"/>
        <rect id="Rectangle_19" data-name="Rectangle 19" width="31.693" height="11.863" transform="translate(35.511)" opacity="0.25" style="mix-blend-mode: overlay;isolation: isolate"/>
      </g>
      <g id="Groupe_380" data-name="Groupe 380" transform="translate(17.756 16.701)">
        <rect id="Rectangle_20" data-name="Rectangle 20" width="31.693" height="11.863" fill="#fff" opacity="0.25" style="mix-blend-mode: overlay;isolation: isolate"/>
        <rect id="Rectangle_21" data-name="Rectangle 21" width="31.693" height="11.863" transform="translate(35.511)" fill="#fff" opacity="0.25" style="mix-blend-mode: overlay;isolation: isolate"/>
      </g>
    </g>
  </g>
  <g id="Groupe_384" data-name="Groupe 384" transform="translate(0 107.406)">
    <ellipse id="Ellipse_458" data-name="Ellipse 458" cx="80.292" cy="71.606" rx="80.292" ry="71.606" transform="translate(0 63.57) rotate(-23.32)" fill="url(#radial-gradient)"/>
    <path id="Tracé_21935" data-name="Tracé 21935" d="M254.672,133.385v96.737a6.336,6.336,0,0,1-6.332,6.332H125.721a6.328,6.328,0,0,1-6.324-6.332V133.385a6.325,6.325,0,0,1,6.324-6.322H248.339A6.332,6.332,0,0,1,254.672,133.385Z" transform="translate(-115.326 -118.477)" fill="url(#linear-gradient)"/>
    <path id="Tracé_21936" data-name="Tracé 21936" d="M173.679,140.01h-45.62a2.409,2.409,0,0,1-2.409-2.409h0a2.409,2.409,0,0,1,2.409-2.409h45.62a2.41,2.41,0,0,1,2.411,2.409h0A2.41,2.41,0,0,1,173.679,140.01Z" transform="translate(-112.405 -114.679)" fill="#002a66"/>
    <path id="Tracé_21937" data-name="Tracé 21937" d="M173.679,151.128h-45.62a2.409,2.409,0,0,1-2.409-2.409h0a2.409,2.409,0,0,1,2.409-2.409h45.62a2.41,2.41,0,0,1,2.411,2.409h0A2.41,2.41,0,0,1,173.679,151.128Z" transform="translate(-112.405 -109.485)" fill="#eef8ff"/>
    <path id="Tracé_21938" data-name="Tracé 21938" d="M188.951,162.247H128.059a2.409,2.409,0,0,1-2.409-2.409h0a2.41,2.41,0,0,1,2.409-2.411h60.892a2.41,2.41,0,0,1,2.411,2.411h0A2.409,2.409,0,0,1,188.951,162.247Z" transform="translate(-112.405 -104.291)" fill="#002a66"/>
    <path id="Tracé_21939" data-name="Tracé 21939" d="M188.951,193.391H128.059a2.409,2.409,0,0,1-2.409-2.411h0a2.409,2.409,0,0,1,2.409-2.409h60.892a2.409,2.409,0,0,1,2.411,2.409h0A2.41,2.41,0,0,1,188.951,193.391Z" transform="translate(-112.405 -89.74)" fill="#002a66"/>
    <path id="Tracé_21940" data-name="Tracé 21940" d="M209.539,193.391H178.82a2.409,2.409,0,0,1-2.409-2.411h0a2.409,2.409,0,0,1,2.409-2.409h30.719a2.409,2.409,0,0,1,2.409,2.409h0A2.409,2.409,0,0,1,209.539,193.391Z" transform="translate(-88.689 -89.74)" fill="#eef8ff"/>
    <g id="Groupe_383" data-name="Groupe 383" transform="translate(45.701 67.95)">
      <path id="Tracé_21941" data-name="Tracé 21941" d="M150.157,168.531v6.943a1.006,1.006,0,0,0,1.006,1.007h3.844a1.006,1.006,0,0,0,1.007-1.007v-6.943a1.006,1.006,0,0,1,1.007-1.007h.371a1.007,1.007,0,0,1,1.008,1.007V187.4a1.008,1.008,0,0,1-1.008,1.007h-.371a1.006,1.006,0,0,1-1.007-1.007v-7.748a1.006,1.006,0,0,0-1.007-1.007h-3.844a1.006,1.006,0,0,0-1.006,1.007V187.4a1.006,1.006,0,0,1-1.007,1.007h-.373a1.006,1.006,0,0,1-1.007-1.007V168.531a1.006,1.006,0,0,1,1.007-1.007h.373A1.006,1.006,0,0,1,150.157,168.531Z" transform="translate(-147.771 -167.524)" fill="#fff"/>
      <path id="Tracé_21942" data-name="Tracé 21942" d="M159.421,169.663h-1.8a1.007,1.007,0,0,1-1.006-1.008v-.125a1.006,1.006,0,0,1,1.006-1.007h7.995a1.007,1.007,0,0,1,1.008,1.007v.125a1.009,1.009,0,0,1-1.008,1.008h-1.8a1.006,1.006,0,0,0-1.006,1.007V187.4a1.006,1.006,0,0,1-1.007,1.007h-.373a1.007,1.007,0,0,1-1.008-1.007V170.67A1.006,1.006,0,0,0,159.421,169.663Z" transform="translate(-143.638 -167.524)" fill="#fff"/>
      <path id="Tracé_21943" data-name="Tracé 21943" d="M177.717,179.423c-.156-2.758-.311-5.825-.217-8.181h-.123c-.467,2.324-1.023,4.8-1.674,7.252l-2.572,9.792h-1.519l-2.447-9.39c-.682-2.664-1.3-5.236-1.7-7.654h-.092c0,2.449-.125,5.363-.248,8.337l-.359,7.87a1,1,0,0,1-1.005.961h-.109a1.007,1.007,0,0,1-1.005-1.067l1.119-18.871a1.008,1.008,0,0,1,1.006-.948h.841a1.007,1.007,0,0,1,.976.757l2.255,8.787c.712,2.758,1.24,4.8,1.673,7.189h.092c.4-2.386.867-4.369,1.549-7.189l2.167-8.778a1,1,0,0,1,.977-.766h.926a1.008,1.008,0,0,1,1.005.949l1.092,18.871a1.007,1.007,0,0,1-1.005,1.065h-.205a1,1,0,0,1-1.005-.958Z" transform="translate(-139.89 -167.524)" fill="#fff"/>
      <path id="Tracé_21944" data-name="Tracé 21944" d="M178.59,167.524h.373a1.006,1.006,0,0,1,1.007,1.007v16.858a1.009,1.009,0,0,0,1.008,1.008h3.872a1.007,1.007,0,0,1,1.008,1.007h0a1.007,1.007,0,0,1-1.008,1.007H178.59a1.006,1.006,0,0,1-1.007-1.007V168.531A1.006,1.006,0,0,1,178.59,167.524Z" transform="translate(-133.843 -167.524)" fill="#fff"/>
    </g>
    <circle id="Ellipse_459" data-name="Ellipse 459" cx="12.932" cy="12.932" r="12.932" transform="translate(107.645 88.308)" fill="url(#radial-gradient-2)" style="mix-blend-mode: color-dodge;isolation: isolate"/>
  </g>
  <g id="Groupe_393" data-name="Groupe 393" transform="translate(64.813 0)">
    <path id="Tracé_21945" data-name="Tracé 21945" d="M235.33,133.385V176.11H166.091a5.3,5.3,0,0,1-5.294-5.294V127.063H229A6.332,6.332,0,0,1,235.33,133.385Z" transform="translate(-160.797 -11.072)" opacity="0.25" style="mix-blend-mode: overlay;isolation: isolate"/>
    <path id="Rectangle_22" data-name="Rectangle 22" d="M3.032,0H233.865A3.032,3.032,0,0,1,236.9,3.032V9.639a0,0,0,0,1,0,0H0a0,0,0,0,1,0,0V3.032A3.032,3.032,0,0,1,3.032,0Z" transform="translate(8.953)" fill="url(#linear-gradient-2)"/>
    <path id="Rectangle_23" data-name="Rectangle 23" d="M0,0H236.9a0,0,0,0,1,0,0V142.843a3.6,3.6,0,0,1-3.6,3.6H3.6a3.6,3.6,0,0,1-3.6-3.6V0A0,0,0,0,1,0,0Z" transform="translate(8.953 9.639)" fill="#e6e7e9" opacity="0.86"/>
    <g id="Groupe_385" data-name="Groupe 385" transform="translate(211.859 3.145)">
      <path id="Tracé_21946" data-name="Tracé 21946" d="M322.482,51.825a1.674,1.674,0,1,1-1.674-1.674A1.674,1.674,0,0,1,322.482,51.825Z" transform="translate(-298.68 -50.151)" fill="#eef8ff"/>
      <path id="Tracé_21947" data-name="Tracé 21947" d="M315.513,51.825a1.675,1.675,0,1,1-1.674-1.674A1.674,1.674,0,0,1,315.513,51.825Z" transform="translate(-301.937 -50.151)" fill="#eef8ff"/>
      <path id="Tracé_21948" data-name="Tracé 21948" d="M308.543,51.825a1.675,1.675,0,1,1-1.676-1.674A1.675,1.675,0,0,1,308.543,51.825Z" transform="translate(-305.193 -50.151)" fill="#eef8ff"/>
    </g>
    <path id="Tracé_21949" data-name="Tracé 21949" d="M305.194,68.493H183.964a2.409,2.409,0,0,1-2.409-2.409h0a2.41,2.41,0,0,1,2.409-2.411H305.194a2.41,2.41,0,0,1,2.409,2.411h0A2.409,2.409,0,0,1,305.194,68.493Z" transform="translate(-151.099 -40.688)" fill="#fff"/>
    <path id="Tracé_21950" data-name="Tracé 21950" d="M305.194,78.853H183.964a2.41,2.41,0,0,1-2.409-2.411h0a2.409,2.409,0,0,1,2.409-2.409H305.194a2.409,2.409,0,0,1,2.409,2.409h0A2.41,2.41,0,0,1,305.194,78.853Z" transform="translate(-151.099 -35.848)" fill="#fff"/>
    <rect id="Rectangle_24" data-name="Rectangle 24" width="60.615" height="4.82" rx="1.642" transform="translate(30.456 53.385)" fill="#002a66"/>
    <path id="Tracé_21951" data-name="Tracé 21951" d="M305.194,130.241H183.964a2.409,2.409,0,0,1-2.409-2.409h0a2.41,2.41,0,0,1,2.409-2.411H305.194a2.41,2.41,0,0,1,2.409,2.411h0A2.409,2.409,0,0,1,305.194,130.241Z" transform="translate(-151.099 -11.839)" fill="#002a66"/>
    <path id="Tracé_21952" data-name="Tracé 21952" d="M239.759,140.6H183.964a2.409,2.409,0,0,1-2.409-2.409h0a2.41,2.41,0,0,1,2.409-2.411h55.795a2.411,2.411,0,0,1,2.411,2.411h0A2.41,2.41,0,0,1,239.759,140.6Z" transform="translate(-151.099 -6.999)" fill="#002a66"/>
    <g id="Groupe_386" data-name="Groupe 386" transform="translate(182.966 37.823)">
      <path id="Tracé_21953" data-name="Tracé 21953" d="M305.882,73.786a20.382,20.382,0,1,0,20.382,20.382A20.405,20.405,0,0,0,305.882,73.786Zm0,37.3A16.922,16.922,0,1,1,322.8,94.168,16.941,16.941,0,0,1,305.882,111.09Z" transform="translate(-285.501 -73.786)" fill="#002a66"/>
      <path id="Tracé_21954" data-name="Tracé 21954" d="M311.212,90.926a11.981,11.981,0,0,1-16.921,0,1.223,1.223,0,0,0-1.73,1.73,14.431,14.431,0,0,0,20.382,0,1.224,1.224,0,0,0-1.731-1.73Z" transform="translate(-282.37 -65.946)" fill="#002a66"/>
      <path id="Tracé_21955" data-name="Tracé 21955" d="M295.051,88.215a2.039,2.039,0,1,0-2.039-2.039A2.039,2.039,0,0,0,295.051,88.215Z" transform="translate(-281.992 -68.949)" fill="#002a66"/>
      <path id="Tracé_21956" data-name="Tracé 21956" d="M305.032,88.215a2.039,2.039,0,1,0-2.039-2.039A2.04,2.04,0,0,0,305.032,88.215Z" transform="translate(-277.329 -68.949)" fill="#002a66"/>
    </g>
    <g id="Groupe_391" data-name="Groupe 391" transform="translate(30.456 76.328)">
      <g id="Groupe_389" data-name="Groupe 389" transform="translate(0 1.409)">
        <g id="Groupe_387" data-name="Groupe 387">
          <path id="Tracé_21957" data-name="Tracé 21957" d="M192.5,124.588a1.913,1.913,0,0,1-1.4-.624l-8.965-9.593a2.233,2.233,0,0,1,0-3l9.116-9.754a1.894,1.894,0,0,1,2.808,0,2.233,2.233,0,0,1,0,3l-7.712,8.252,7.559,8.092a2.228,2.228,0,0,1,0,3A1.913,1.913,0,0,1,192.5,124.588Z" transform="translate(-181.555 -100.99)" fill="url(#linear-gradient-3)"/>
        </g>
        <g id="Groupe_388" data-name="Groupe 388" transform="translate(37.53)">
          <path id="Tracé_21958" data-name="Tracé 21958" d="M209.27,124.588a1.918,1.918,0,0,1-1.4-.624,2.231,2.231,0,0,1,0-3l7.562-8.092-7.713-8.252a2.233,2.233,0,0,1,0-3,1.894,1.894,0,0,1,2.808,0l9.117,9.754a2.233,2.233,0,0,1,0,3l-8.966,9.593A1.913,1.913,0,0,1,209.27,124.588Z" transform="translate(-207.134 -100.99)" fill="url(#linear-gradient-4)"/>
        </g>
      </g>
      <g id="Groupe_390" data-name="Groupe 390" transform="translate(18.873)">
        <path id="Tracé_21959" data-name="Tracé 21959" d="M196.4,127.672a1.861,1.861,0,0,1-.747-.157,2.179,2.179,0,0,1-1.092-2.769l8.9-23.392a1.941,1.941,0,0,1,2.588-1.166,2.178,2.178,0,0,1,1.09,2.769l-8.9,23.392A1.992,1.992,0,0,1,196.4,127.672Z" transform="translate(-194.418 -100.03)" fill="url(#linear-gradient-5)"/>
      </g>
    </g>
    <g id="Groupe_392" data-name="Groupe 392" transform="translate(166.16 21.016)">
      <path id="Tracé_21960" data-name="Tracé 21960" d="M342.72,136.708H279.749a5.71,5.71,0,0,1-5.7-5.7V68.034a5.71,5.71,0,0,1,5.7-5.7H342.72a5.71,5.71,0,0,1,5.7,5.7v62.971A5.71,5.71,0,0,1,342.72,136.708ZM279.749,65.791a2.245,2.245,0,0,0-2.242,2.243v62.971a2.245,2.245,0,0,0,2.242,2.243H342.72a2.246,2.246,0,0,0,2.243-2.243V68.034a2.246,2.246,0,0,0-2.243-2.243Z" transform="translate(-274.046 -62.331)" fill="#002a66"/>
    </g>
    <path id="Tracé_21961" data-name="Tracé 21961" d="M267.526,107.119v-1.956a1.343,1.343,0,0,0-1.344-1.342h-3.2a10,10,0,0,0-1.238-2.977l2.264-2.264a1.343,1.343,0,0,0,0-1.9L262.629,95.3a1.343,1.343,0,0,0-1.9,0l-2.264,2.264a9.98,9.98,0,0,0-2.976-1.238v-3.2a1.342,1.342,0,0,0-1.342-1.342h-1.957a1.342,1.342,0,0,0-1.342,1.342v3.2a10,10,0,0,0-2.977,1.238L245.609,95.3a1.345,1.345,0,0,0-1.9,0l-1.382,1.384a1.341,1.341,0,0,0,0,1.9l2.262,2.264a10.04,10.04,0,0,0-1.237,2.977h-3.2a1.342,1.342,0,0,0-1.342,1.342v1.956a1.343,1.343,0,0,0,1.342,1.342h3.2a10.04,10.04,0,0,0,1.237,2.977l-2.262,2.264a1.341,1.341,0,0,0,0,1.9l1.382,1.384a1.345,1.345,0,0,0,1.9,0l2.262-2.264a10.04,10.04,0,0,0,2.977,1.237v3.2a1.343,1.343,0,0,0,1.342,1.342h1.957a1.343,1.343,0,0,0,1.342-1.342v-3.2a10.015,10.015,0,0,0,2.976-1.237l2.264,2.264a1.343,1.343,0,0,0,1.9,0l1.384-1.384a1.343,1.343,0,0,0,0-1.9l-2.264-2.264a10,10,0,0,0,1.238-2.977h3.2A1.343,1.343,0,0,0,267.526,107.119ZM254.109,111.6a5.539,5.539,0,1,1,4.52-4.52A5.546,5.546,0,0,1,254.109,111.6Z" transform="translate(-124.347 -27.554)" fill="url(#linear-gradient-6)"/>
  </g>
  <g id="Groupe_399" data-name="Groupe 399" transform="translate(332.722 115.67)">
    <g id="Groupe_394" data-name="Groupe 394" transform="translate(92.403 285.862)">
      <path id="Tracé_21962" data-name="Tracé 21962" d="M406.877,349.083l36.332-2.042s14.464-.18,1.859-7.594a40.627,40.627,0,0,1-5.951-4.283,45.747,45.747,0,0,1-10.527-13.485l-7.136,1.877-12.474,3.288c-.113.025-.216.051-.329.069C407.751,334.316,406.877,349.083,406.877,349.083Z" transform="translate(-406.139 -321.678)" fill="url(#linear-gradient-7)"/>
      <path id="Tracé_21963" data-name="Tracé 21963" d="M455.5,346.976s-.737-12.043-10.193-13.158-10.54,8.083-10.54,8.083l-27.651-1.551-.738,6.626Z" transform="translate(-406.374 -316.05)" fill="#010d19"/>
      <path id="Tracé_21964" data-name="Tracé 21964" d="M416.812,323.555c1.106,3.608,4.212,11.79,10.077,14.222a11.563,11.563,0,0,1,7.587-2.613,45.747,45.747,0,0,1-10.527-13.485Z" transform="translate(-401.497 -321.678)" fill="#010d19"/>
    </g>
    <path id="Tracé_21965" data-name="Tracé 21965" d="M450.95,368.059l-24.325,2.594s-9.55-76.279-18.157-107.793c-2.777,6.506-8.375,29.982-13.6,53.374-6.089,27.309-11.677,54.514-11.677,54.514s-13.944,1.565-21.729-4.741c2.4-43.511,19.247-130.361,21.452-143.069.018.1.044.208.069.313a6.421,6.421,0,0,0,.537,1.426,3.444,3.444,0,0,0,.459.615s.007.009.025.034c2.016,2.207,8.062,4.629,16.5,4.9,9.092.285,20.969-1.929,33.617-9.629a9.766,9.766,0,0,0,.164-4c.423.415,1.237,5.527,2.274,13.641C441.331,267.49,450.95,368.059,450.95,368.059Z" transform="translate(-334.954 -84.914)" fill="url(#linear-gradient-8)"/>
    <path id="Tracé_21966" data-name="Tracé 21966" d="M381.517,199.647l-1.7,6.644-.12.459-.406,1.574v.009a21.177,21.177,0,0,1-7.31-1.108,24.393,24.393,0,0,1-6.454-3.184c-.553-.389-1.106-.8-1.661-1.263.77-8.971,3.694-24.791,4.645-29.825.191-1.012.3-1.583.3-1.583Z" transform="translate(-333.833 -106.041)" fill="url(#linear-gradient-9)"/>
    <path id="Tracé_21967" data-name="Tracé 21967" d="M385.877,197.029s-1.816,8.029-4.135,15.45c-1.652,5.242-3.548,10.191-5.242,11.8-4.11,3.893-14.671,10.285-14.671,10.285l-6.117-12.646,9.039-7.924,3.557-15.83,1.02-4.525a23.369,23.369,0,0,0,13.764,4.292l.406-1.583Z" transform="translate(-337.64 -95.637)" fill="url(#linear-gradient-10)"/>
    <path id="Tracé_21968" data-name="Tracé 21968" d="M431.567,247.2c-12.647,7.7-24.524,9.914-33.617,9.629-8.485-.269-14.549-2.717-16.53-4.931a3.442,3.442,0,0,1-.459-.615,6.42,6.42,0,0,1-.537-1.426c-.025-.1-.051-.208-.069-.313-.657-2.8-.762-7.525-.726-12.508,0-.762.009-1.523.018-2.293.026-2.067.06-4.143.078-6.1v-.026c.026-2.6.018-4.974-.1-6.886-.043-.848-.111-1.6-.207-2.232-.044-.233-.078-.458-.122-.657-.018-.069-.034-.147-.051-.224-.251-1.108-.735-2.769-1.392-4.81V213.8c-.588-1.878-1.325-4.066-2.111-6.437-.233-.691-.466-1.4-.71-2.127-.717-2.154-1.479-4.429-2.232-6.712-.588-1.791-1.175-3.59-1.739-5.355-.225-.717-.449-1.428-.666-2.127a112.837,112.837,0,0,1-3.26-12.241c-.018-.129-.044-.251-.062-.371-.051-.329-.1-.632-.129-.926.138-.217.285-.442.433-.657.1-.156.207-.313.311-.459a50.669,50.669,0,0,1,9.7-9.974c.952-.76,1.878-1.461,2.733-2.085.693-.509,1.341-.968,1.938-1.375l.06-.035,3.9-2.223a76.673,76.673,0,0,1,12.241-1.037,74.563,74.563,0,0,1,12.594.995,47.147,47.147,0,0,1,6.445,1.47l.2,2.527.182,2.24,1.03,12.759.18,2.24.078.995a.139.139,0,0,0,.009.035c.113.449,1.237,4.912,2.769,11.3.173.7.346,1.428.528,2.172.891,3.712,1.877,7.933,2.889,12.327.156.717.32,1.436.484,2.163.935,4.117,1.86,8.338,2.7,12.379.148.735.295,1.461.45,2.179.935,4.611,1.73,8.919,2.276,12.474.12.77.224,1.514.32,2.207.156,1.133.268,2.163.346,3.071A9.766,9.766,0,0,1,431.567,247.2Z" transform="translate(-332.395 -111.515)" fill="url(#linear-gradient-11)"/>
    <g id="Groupe_395" data-name="Groupe 395" transform="translate(34.544 53.132)" opacity="0.35">
      <path id="Tracé_21969" data-name="Tracé 21969" d="M417.674,165.3,367.13,177.208c-.018-.129-.044-.251-.062-.371-.051-.329-.1-.632-.129-.926.138-.217.285-.442.433-.657.1-.155.207-.313.311-.459l49.809-11.738Z" transform="translate(-366.939 -163.057)" opacity="0.25"/>
      <path id="Tracé_21970" data-name="Tracé 21970" d="M417.785,175.52,369.957,186.8c-.225-.717-.449-1.428-.666-2.127L417.6,173.28Z" transform="translate(-365.84 -158.281)" opacity="0.25"/>
      <path id="Tracé_21971" data-name="Tracé 21971" d="M419.692,185.385l-46.531,10.969c-.233-.691-.467-1.4-.71-2.127l46.713-11.013C419.337,183.915,419.51,184.642,419.692,185.385Z" transform="translate(-364.364 -153.64)" opacity="0.25"/>
      <path id="Tracé_21972" data-name="Tracé 21972" d="M421.668,195.259l-46.02,10.847c-.043-.848-.111-1.6-.207-2.232L421.184,193.1C421.34,193.813,421.5,194.532,421.668,195.259Z" transform="translate(-362.967 -149.023)" opacity="0.25"/>
      <path id="Tracé_21973" data-name="Tracé 21973" d="M424.748,205.186l-49.16,11.592c0-.762.009-1.523.018-2.293L424.3,203.007C424.446,203.742,424.593,204.468,424.748,205.186Z" transform="translate(-362.898 -144.392)" opacity="0.25"/>
      <path id="Tracé_21974" data-name="Tracé 21974" d="M427.091,215.2l-49.964,11.773a3.442,3.442,0,0,1-.459-.615,6.417,6.417,0,0,1-.537-1.426l50.641-11.939C426.891,213.764,427,214.508,427.091,215.2Z" transform="translate(-362.645 -139.726)" opacity="0.25"/>
    </g>
    <path id="Tracé_21975" data-name="Tracé 21975" d="M407.523,160.65c-2.361,6.582-7.543,15.787-18.148,16.194-12.674.493-14.948-6.921-15.321-10.433.952-.76,1.878-1.461,2.733-2.085.693-.509,1.341-.968,1.938-1.375l.06-.035,3.9-2.223a76.674,76.674,0,0,1,12.241-1.037A74.563,74.563,0,0,1,407.523,160.65Z" transform="translate(-329.07 -111.515)" opacity="0.25" style="mix-blend-mode: overlay;isolation: isolate"/>
    <g id="Groupe_396" data-name="Groupe 396" transform="translate(31.369 27.984)">
      <path id="Tracé_21976" data-name="Tracé 21976" d="M393.466,176.5a4.193,4.193,0,0,1-3.721,1.263,8.114,8.114,0,0,1-5.363-3.806,10.172,10.172,0,0,1-.995-1.956c-.018-.043-.026-.069-.026-.069a3.612,3.612,0,0,1-2.205.078,2.166,2.166,0,0,1-.233-.043.513.513,0,0,1-.078-.018,18.306,18.306,0,0,1-5.138-2.111,25.805,25.805,0,0,1-8-7.516c-.442-.615-.857-1.228-1.237-1.825-.433-.675-.822-1.332-1.168-1.956,7.6-.76,12.612-6.167,14.852-12.621,0,0,4.17,6.861,5.1,6.861s1.67-6.488,4.446-6.575a2.042,2.042,0,0,1,1.21.311c1.618,1.03,1.6,4.542.277,8.209-.839,2.318,2.6,4.265,3.339,4.456.043.009.1-.026.191-.113a64.881,64.881,0,0,0,1,7.094c.207,1.046.406,1.9.562,2.421C396.753,170.208,395.715,174.36,393.466,176.5Z" transform="translate(-364.53 -145.917)" fill="url(#linear-gradient-12)"/>
      <path id="Tracé_21977" data-name="Tracé 21977" d="M373.806,149.219a16.505,16.505,0,0,1-8.373,7.587c-.242-.433-.458-.848-.657-1.237A37.3,37.3,0,0,0,373.806,149.219Z" transform="translate(-364.775 -144.374)" fill="#ffb7a9"/>
    </g>
    <path id="Tracé_21978" data-name="Tracé 21978" d="M403.9,152.987c-1.177,7.335-4.585,14.065-5.536,14.99-.087.087-.148.122-.191.113-.744-.191-4.179-2.138-3.339-4.456,1.592-4.419,1.3-8.615-1.488-8.52s-3.521,6.575-4.446,6.575-5.1-6.861-5.1-6.861c-2.24,6.454-7.25,11.861-14.853,12.621-.268.035-.537.053-.813.07q.363-.13.7-.26a16.506,16.506,0,0,0,8.373-7.587,37.3,37.3,0,0,1-9.031,6.35,13.086,13.086,0,0,1-7.085,1.419c-.172-.226-.345-.459-.493-.7-6.686-9.956-1.877-30.726,7.492-34.705a18.906,18.906,0,0,1-5.354-2.855c4.168.908,14.809-2.776,18.494-2.292a6.117,6.117,0,0,1,4.861,3.408s4.654-4.2,9.94-2.431c-2.6-.1-4.543,3.053-4.543,3.053s9.923,2.224,12.328,12.7A24.691,24.691,0,0,1,403.9,152.987Z" transform="translate(-336.811 -126.844)" fill="url(#linear-gradient-13)"/>
    <path id="Tracé_21979" data-name="Tracé 21979" d="M387.706,170.3a4.192,4.192,0,0,1-3.721,1.263,8.114,8.114,0,0,1-5.363-3.806,10.171,10.171,0,0,1-.995-1.956c1.825-.424,4.265-1.928,6.142-6.591V159.2c0-.009.009-.009.009-.018C385.517,160.464,385.224,168.283,387.706,170.3Z" transform="translate(-327.401 -111.735)" opacity="0.25" style="mix-blend-mode: overlay;isolation: isolate"/>
    <g id="Groupe_397" data-name="Groupe 397" transform="translate(31.369 27.984)">
      <path id="Tracé_21980" data-name="Tracé 21980" d="M365.432,156.806c-.242-.433-.458-.848-.657-1.237a37.3,37.3,0,0,0,9.031-6.35A16.505,16.505,0,0,1,365.432,156.806Z" transform="translate(-364.775 -144.374)" opacity="0.25" style="mix-blend-mode: overlay;isolation: isolate"/>
      <path id="Tracé_21981" data-name="Tracé 21981" d="M390.9,146.514c-4.4,1.447-2.581,8.544-4.961,8.907-2.967.467-4.4-3.942-4.4-3.942s-1.859,3.712-7.508,6.869a18.785,18.785,0,0,1-7.569,2.145c-.433-.675-.822-1.332-1.168-1.956,7.6-.76,12.612-6.167,14.852-12.621,0,0,4.17,6.861,5.1,6.861s1.67-6.488,4.446-6.575A2.042,2.042,0,0,1,390.9,146.514Z" transform="translate(-364.53 -145.917)" opacity="0.25" style="mix-blend-mode: overlay;isolation: isolate"/>
    </g>
    <path id="Tracé_21982" data-name="Tracé 21982" d="M388.764,160.188c-1.876,4.663-4.316,6.167-6.142,6.591-.018-.043-.026-.069-.026-.069a3.858,3.858,0,0,1-2.438.035.516.516,0,0,1-.078-.018,18.307,18.307,0,0,1-5.138-2.111,25.8,25.8,0,0,1-8-7.516,3.34,3.34,0,0,1,2.37.908c2.293,1.808,4.378,5.977,9.594,7.094C384.083,166.217,387.431,162.142,388.764,160.188Z" transform="translate(-332.395 -112.714)" fill="#fff" opacity="0.25" style="mix-blend-mode: overlay;isolation: isolate"/>
    <path id="Tracé_21983" data-name="Tracé 21983" d="M382.137,148.162s-.892,2.6-.491,3.43S384.872,149.877,382.137,148.162Z" transform="translate(-325.572 -116.884)" opacity="0.25" style="mix-blend-mode: overlay;isolation: isolate"/>
    <path id="Tracé_21984" data-name="Tracé 21984" d="M402.906,147.75c-1.177,7.335-4.585,14.065-5.536,14.99-.087.087-.148.122-.191.113-.744-.191-4.179-2.138-3.339-4.456,1.592-4.419,1.3-8.615-1.488-8.52s-3.521,6.575-4.446,6.575-5.1-6.861-5.1-6.861c-2.24,6.454-7.249,11.861-14.853,12.621-.268.035-.537.053-.813.07q.363-.13.7-.26a16.505,16.505,0,0,0,8.373-7.587,37.3,37.3,0,0,1-9.031,6.35,13.086,13.086,0,0,1-7.085,1.419c-.172-.226-.345-.459-.493-.7,5.156-3.46,18-13.054,17.777-22.613,2.5,4.723,1.947,10.7,1.947,10.7s2.353-6.253,1.938-11.54a30.162,30.162,0,0,1,4.774,9.879,7.438,7.438,0,0,1,6.626-6.262c6.124-.968,6.375,7.923,6.375,7.923s2.111-3.191-.251-8.891C400.4,141.633,401.789,144.437,402.906,147.75Z" transform="translate(-335.819 -121.608)" opacity="0.25" style="mix-blend-mode: overlay;isolation: isolate"/>
    <path id="Tracé_21985" data-name="Tracé 21985" d="M386.781,174.444c-7.556.958-9.939-6.174-10.674-8.856a3.611,3.611,0,0,0,2.205-.078s.009.026.026.069a10.178,10.178,0,0,0,.995,1.956,8.114,8.114,0,0,0,5.363,3.806,4.192,4.192,0,0,0,3.721-1.263c2.249-2.136,3.287-6.288,2.811-7.916-.155-.518-.355-1.375-.562-2.421,1.133-.053,2.24-.078,3.3-.087C394.255,165.555,393.361,173.61,386.781,174.444Z" transform="translate(-328.112 -111.514)" fill="#0049b2"/>
    <path id="Tracé_21986" data-name="Tracé 21986" d="M378.578,218.426a55.332,55.332,0,0,0-.433-9.775c-.233-1.1-.744-2.846-1.444-5.034a21.177,21.177,0,0,1-7.31-1.108c.666-2.4.591-7.116.713-13a36.6,36.6,0,0,0-.713-8.049c2.811,6.35,6.53,13.564,7.836,20.112C378.629,208.625,379.114,214.9,378.578,218.426Z" transform="translate(-331.249 -101.326)" opacity="0.25" style="mix-blend-mode: overlay;isolation: isolate"/>
    <path id="Tracé_21987" data-name="Tracé 21987" d="M422.433,241.04c-12.647,7.7-24.524,9.914-33.617,9.629,10.8-4.525,7.638-15.416-2.327-17.414,10.027-7.412,18.1-13.991,16.48-37.992a105.311,105.311,0,0,1,.926-22.431l5.942,3.928C410.261,178.437,424.811,236.292,422.433,241.04Z" transform="translate(-323.261 -105.358)" opacity="0.25" style="mix-blend-mode: overlay;isolation: isolate"/>
    <path id="Tracé_21988" data-name="Tracé 21988" d="M418.568,190.254a2.076,2.076,0,0,1-.182.613c-.537,1.168-2.189,2.327-4.23,3.392a67.467,67.467,0,0,1-10.529,4.022c-.673.2-1.073.311-1.073.311s-6-11.92-7.075-22.309c-.684-6.6.622-12.586,6.729-14.524a13.524,13.524,0,0,1,1.827-.424s8.407,4.672,14.264,27.82C418.386,189.519,418.482,189.881,418.568,190.254Z" transform="translate(-319.137 -110.73)" fill="url(#linear-gradient-14)"/>
    <path id="Tracé_21989" data-name="Tracé 21989" d="M437.49,212.173c-2.4,4.636-40.777,23.355-40.777,23.355s-2.968,5.562-8.34,6.67-9.455-1.852-12.6-2.034-7.6,3.15-7.6,3.15a2.209,2.209,0,0,1-1-.2c-.571-.295-1-1.021-.043-2.769,4.143-7.412,19.394-8.711,20.51-9.264.528-.26,8.235-6.428,16.2-12.845,8.884-7.145,18.088-14.612,18.088-14.612l-3.677-11.167-1.177-3.581c3.322-.986,13.271-4.187,14.759-7.414.38,1.29.933,3.175,1.548,5.389C435.751,195.451,439.117,209.058,437.49,212.173Z" transform="translate(-332.575 -101.326)" fill="url(#linear-gradient-15)"/>
    <path id="Tracé_21990" data-name="Tracé 21990" d="M417.288,186.852c-4.94,4.629-11.678,5.493-15.13,5.606l-1.177-3.581c3.322-.986,13.271-4.187,14.759-7.414C416.12,182.753,416.673,184.638,417.288,186.852Z" transform="translate(-316.49 -101.326)" opacity="0.25" style="mix-blend-mode: overlay;isolation: isolate"/>
    <path id="Tracé_21991" data-name="Tracé 21991" d="M380.474,202.739c-.719,2.829-1.679,6.34-2.742,9.739-4.723-2.967-10.4-10.172-13.434-14.316l1.02-4.525a23.369,23.369,0,0,0,13.764,4.292C379.739,199.97,380.223,201.631,380.474,202.739Z" transform="translate(-333.629 -95.637)" opacity="0.25" style="mix-blend-mode: overlay;isolation: isolate"/>
    <rect id="Rectangle_25" data-name="Rectangle 25" width="27.706" height="7.415" rx="2.359" transform="translate(90.508 284.039) rotate(-4.846)" fill="#a2a5aa"/>
    <path id="Tracé_21992" data-name="Tracé 21992" d="M386.918,326.613a3.7,3.7,0,0,1-3.59,2.76,3.754,3.754,0,0,1-.613-.051c-.113-.018-.217-.044-.329-.069l-19.611-5.165-1.012-.269a3.709,3.709,0,1,1,1.894-7.172l20.623,5.433A3.712,3.712,0,0,1,386.918,326.613Z" transform="translate(-336.103 -38.227)" fill="#a2a5aa"/>
    <g id="Groupe_398" data-name="Groupe 398" transform="translate(0 285.862)">
      <path id="Tracé_21993" data-name="Tracé 21993" d="M390.175,349.083l-36.331-2.042s-14.464-.18-1.86-7.594a40.545,40.545,0,0,0,5.951-4.283,45.731,45.731,0,0,0,10.529-13.485l7.136,1.877,12.474,3.288c.111.025.216.051.329.069C389.3,334.316,390.175,349.083,390.175,349.083Z" transform="translate(-341.791 -321.678)" fill="url(#linear-gradient-16)"/>
      <path id="Tracé_21994" data-name="Tracé 21994" d="M343.4,346.976s.737-12.043,10.193-13.158S364.13,341.9,364.13,341.9l27.649-1.551.738,6.626Z" transform="translate(-343.395 -316.05)" fill="#010d19"/>
      <path id="Tracé_21995" data-name="Tracé 21995" d="M372.063,323.555c-1.108,3.608-4.214,11.79-10.078,14.222a11.563,11.563,0,0,0-7.587-2.613,45.73,45.73,0,0,0,10.529-13.485Z" transform="translate(-338.254 -321.678)" fill="#010d19"/>
    </g>
    <path id="Tracé_21996" data-name="Tracé 21996" d="M416.373,190.254a2.074,2.074,0,0,1-.182.613c-.537,1.168-2.189,2.327-4.23,3.392a58.467,58.467,0,0,0-2.371-16.246,43.919,43.919,0,0,0-9.576-16.254,13.525,13.525,0,0,1,1.827-.424s8.407,4.672,14.264,27.82C416.191,189.519,416.287,189.881,416.373,190.254Z" transform="translate(-316.942 -110.73)" opacity="0.25" style="mix-blend-mode: overlay;isolation: isolate"/>
    <path id="Tracé_21997" data-name="Tracé 21997" d="M404.989,225.9s-.558,8.053,7.506,9.722" transform="translate(-314.622 -80.565)" fill="none" stroke="#fff" stroke-linecap="round" stroke-linejoin="round" stroke-width="1.179" opacity="0.25" style="mix-blend-mode: overlay;isolation: isolate"/>
    <line id="Ligne_48" data-name="Ligne 48" x2="15.807" y2="119.992" transform="translate(94.115 158.3)" fill="none" stroke="#fff" stroke-linecap="round" stroke-linejoin="round" stroke-width="1.179" opacity="0.25" style="mix-blend-mode: overlay;isolation: isolate"/>
    <line id="Ligne_49" data-name="Ligne 49" x1="26.817" y2="101.826" transform="translate(42.842 176.466)" fill="none" stroke="#fff" stroke-linecap="round" stroke-linejoin="round" stroke-width="1.179" opacity="0.25" style="mix-blend-mode: overlay;isolation: isolate"/>
    <path id="Tracé_21998" data-name="Tracé 21998" d="M397.843,248.365c-2.777,6.506-8.375,29.982-13.6,53.374-.155-12.223.1-25.372,1.445-35.207C389.02,241.981,397.843,248.365,397.843,248.365Z" transform="translate(-324.329 -70.418)" opacity="0.25" style="mix-blend-mode: overlay;isolation: isolate"/>
    <path id="Tracé_21999" data-name="Tracé 21999" d="M429.386,230.232c-35.631,17.785-51.85-3.917-52.56-4.9,2.016,2.207,8.062,4.629,16.5,4.9,9.092.285,20.969-1.929,33.617-9.629a9.767,9.767,0,0,0,.164-4C427.534,217.006,428.348,222.118,429.386,230.232Z" transform="translate(-327.776 -84.914)" opacity="0.25" style="mix-blend-mode: overlay;isolation: isolate"/>
    <path id="Tracé_22000" data-name="Tracé 22000" d="M403.832,206.527c-1.488,5.727-13.642,14.913-15.787,14.766-2.431-.164-13.762,2.733-17.326,4.818a7.212,7.212,0,0,0-3.557,5.294c-.571-.295-1-1.021-.043-2.769,4.143-7.412,19.394-8.711,20.51-9.264C388.158,219.113,395.865,212.945,403.832,206.527Z" transform="translate(-332.575 -89.616)" fill="#fff" opacity="0.25" style="mix-blend-mode: overlay;isolation: isolate"/>
  </g>
  <g id="Groupe_401" data-name="Groupe 401" transform="translate(123.075 267.969)">
    <path id="Tracé_22001" data-name="Tracé 22001" d="M251.656,237.357l-2.833-1.987-2.832-1.99c-.43.612-10.656,15.312-20.98,42.539-9.488,25.026-20.8,65.8-20.8,117.937h6.919C211.131,296.327,251.251,237.935,251.656,237.357Z" transform="translate(-198.775 -229.368)" fill="url(#linear-gradient-17)"/>
    <path id="Tracé_22002" data-name="Tracé 22002" d="M293.853,237.357l-2.833-1.987-2.83-1.99c-.431.612-10.656,15.312-20.98,42.539-9.49,25.026-20.8,65.8-20.8,117.937h6.919C253.328,296.327,293.448,237.935,293.853,237.357Z" transform="translate(-179.06 -229.368)" fill="url(#linear-gradient-18)"/>
    <path id="Tracé_22003" data-name="Tracé 22003" d="M414.025,237.357l2.832-1.987,2.832-1.99c.43.612,10.656,15.312,20.98,42.539,9.488,25.026,20.8,65.8,20.8,117.937h-6.921C454.548,296.327,414.43,237.935,414.025,237.357Z" transform="translate(-100.749 -229.368)" fill="url(#linear-gradient-19)"/>
    <path id="Tracé_22004" data-name="Tracé 22004" d="M371.827,237.357l2.833-1.987,2.832-1.99c.43.612,10.656,15.312,20.98,42.539,9.488,25.026,20.8,65.8,20.8,117.937h-6.919C412.351,296.327,372.232,237.935,371.827,237.357Z" transform="translate(-120.464 -229.368)" fill="url(#linear-gradient-20)"/>
    <g id="Groupe_400" data-name="Groupe 400">
      <path id="Tracé_22005" data-name="Tracé 22005" d="M520.077,235.222A4.579,4.579,0,0,1,515.5,239.8H205.081a4.576,4.576,0,0,1,0-9.152H515.5A4.578,4.578,0,0,1,520.077,235.222Z" transform="translate(-200.506 -230.646)" fill="#9cacf2"/>
      <path id="Tracé_22006" data-name="Tracé 22006" d="M474.668,235.222a4.579,4.579,0,0,1-4.576,4.576H415.2a4.576,4.576,0,1,0,0-9.152h54.9A4.578,4.578,0,0,1,474.668,235.222Z" transform="translate(-100.202 -230.646)" fill="#c7cfff"/>
    </g>
  </g>
  <g id="Groupe_402" data-name="Groupe 402" transform="translate(152.234 133.834)">
    <path id="Tracé_22007" data-name="Tracé 22007" d="M303.182,139.226V239.691H230.76a10.378,10.378,0,0,1-10.38-10.38v-79.7a10.378,10.378,0,0,1,10.38-10.38Z" transform="translate(-220.38 -139.223)" fill="#eef8ff"/>
    <path id="Tracé_22008" data-name="Tracé 22008" d="M280.119,239.692h0V139.224h0a10.381,10.381,0,0,0-10.38,10.38v79.707A10.381,10.381,0,0,0,280.119,239.692Z" transform="translate(-197.319 -139.224)" fill="#c7cfff"/>
    <path id="Tracé_22009" data-name="Tracé 22009" d="M260.337,221.158H234.931l6.29-38.97s2.984-5.769,9.515-2.032C256.047,183.2,253.556,209.479,260.337,221.158Z" transform="translate(-213.582 -120.689)" opacity="0.25" style="mix-blend-mode: overlay;isolation: isolate"/>
    <path id="Tracé_22010" data-name="Tracé 22010" d="M227.795,242.5l16.757-60.72a2.744,2.744,0,0,1,4.87-.888c2.515,3.557,5.31,9.618,4.51,18.434-1.391,15.31-10.288,44.584-10.288,44.584Z" transform="translate(-216.916 -120.287)" fill="#9cacf2"/>
    <path id="Tracé_22011" data-name="Tracé 22011" d="M261.045,221.439h-33.9a6.755,6.755,0,0,0-6.755,6.755h0a6.754,6.754,0,0,0,6.755,6.754h33.9a6.754,6.754,0,0,0,6.754-6.754h0A6.754,6.754,0,0,0,261.045,221.439Z" transform="translate(-220.374 -100.813)" fill="#7189e2"/>
    <path id="Tracé_22012" data-name="Tracé 22012" d="M249.306,170.3c0,4.811-2.532,8.712-5.656,8.712s-5.656-3.9-5.656-8.712,2.532-8.712,5.656-8.712S249.306,165.487,249.306,170.3Z" transform="translate(-212.151 -128.776)" fill="url(#linear-gradient-21)"/>
  </g>
  <g id="Groupe_403" data-name="Groupe 403" transform="translate(264.005 206.327)">
    <path id="Tracé_22013" data-name="Tracé 22013" d="M403.8,228.121l-43.723-2.235v6.983H403.8Z" transform="translate(-266.886 -171.229)" fill="#9cacf2"/>
    <path id="Tracé_22014" data-name="Tracé 22014" d="M398.15,249.452h-84.3a2.142,2.142,0,0,1-2.082-1.637l-13.289-54.78a2.141,2.141,0,0,1,2.08-2.645h84.3a2.14,2.14,0,0,1,2.08,1.636l13.29,54.78A2.141,2.141,0,0,1,398.15,249.452Z" transform="translate(-295.69 -187.812)" fill="#c7cfff"/>
    <path id="Tracé_22015" data-name="Tracé 22015" d="M396.291,247.7h-84.3a2.144,2.144,0,0,1-2.085-1.634L296.622,191.28a2.148,2.148,0,0,1,2.085-2.647H383a2.136,2.136,0,0,1,2.076,1.634l13.287,54.783A2.138,2.138,0,0,1,396.291,247.7Z" transform="translate(-296.559 -188.633)" fill="#eef8ff"/>
    <path id="Tracé_22016" data-name="Tracé 22016" d="M336.316,210.6c1.106,2.889.062,5.973-2.334,6.891s-5.234-.681-6.34-3.57-.06-5.973,2.334-6.89S335.211,207.716,336.316,210.6Z" transform="translate(-282.244 -180.156)" fill="url(#linear-gradient-22)"/>
  </g>
  <g id="Groupe_407" data-name="Groupe 407" transform="translate(375.972 25.12)">
    <ellipse id="Ellipse_460" data-name="Ellipse 460" cx="80.292" cy="71.606" rx="80.292" ry="71.606" transform="translate(0 63.57) rotate(-23.32)" fill="url(#radial-gradient-3)"/>
    <rect id="Rectangle_26" data-name="Rectangle 26" width="114.644" height="75.968" rx="4.198" transform="translate(35.253 49.453)" fill="url(#linear-gradient-23)"/>
    <g id="Groupe_406" data-name="Groupe 406" transform="translate(59.749 63.159)">
      <g id="Groupe_404" data-name="Groupe 404">
        <path id="Tracé_22017" data-name="Tracé 22017" d="M423.989,156.734a6.176,6.176,0,0,1-6.168-6.17V139.526a3.065,3.065,0,0,0-.9-2.182l-2.214-2.214a3.791,3.791,0,0,1,0-5.354l2.216-2.214a3.064,3.064,0,0,0,.9-2.18V114.343a6.175,6.175,0,0,1,6.168-6.168v3.084a3.088,3.088,0,0,0-3.084,3.084v11.039a6.124,6.124,0,0,1-1.808,4.362l-2.214,2.214a.7.7,0,0,0,0,.992l2.213,2.214a6.124,6.124,0,0,1,1.808,4.362v11.038a3.088,3.088,0,0,0,3.084,3.084Z" transform="translate(-413.595 -108.175)" fill="#eef8ff"/>
      </g>
      <g id="Groupe_405" data-name="Groupe 405" transform="translate(55.263)">
        <path id="Tracé_22018" data-name="Tracé 22018" d="M451.261,108.175a6.175,6.175,0,0,1,6.168,6.168v11.039a3.064,3.064,0,0,0,.9,2.18l2.214,2.214a3.791,3.791,0,0,1,0,5.354l-2.215,2.214a3.065,3.065,0,0,0-.9,2.182v11.038a6.176,6.176,0,0,1-6.168,6.17v-3.086a3.088,3.088,0,0,0,3.084-3.084V139.526a6.124,6.124,0,0,1,1.808-4.362l2.214-2.214a.7.7,0,0,0,0-.992l-2.214-2.214a6.124,6.124,0,0,1-1.808-4.362V114.343a3.088,3.088,0,0,0-3.084-3.084Z" transform="translate(-451.261 -108.175)" fill="#eef8ff"/>
      </g>
      <path id="Tracé_22019" data-name="Tracé 22019" d="M455.2,119.1a6.654,6.654,0,0,0-9.408,0l-4.7,4.7-4.7-4.7a6.652,6.652,0,0,0-9.408,9.408l4.7,4.7,9.408,9.408,9.408-9.408,4.7-4.7A6.654,6.654,0,0,0,455.2,119.1Z" transform="translate(-408.256 -103.979)" fill="#eef8ff"/>
    </g>
  </g>
  <g id="Groupe_409" data-name="Groupe 409" transform="translate(285.49 56.8)">
    <path id="Tracé_22020" data-name="Tracé 22020" d="M399.7,109.991v-2.968a2.037,2.037,0,0,0-2.036-2.038h-4.852a15.2,15.2,0,0,0-1.878-4.518l3.435-3.435a2.036,2.036,0,0,0,0-2.882l-2.1-2.1a2.038,2.038,0,0,0-2.882,0l-3.436,3.435a15.2,15.2,0,0,0-4.518-1.878V88.758A2.037,2.037,0,0,0,379.4,86.72h-2.97a2.038,2.038,0,0,0-2.038,2.038v4.851a15.205,15.205,0,0,0-4.516,1.878l-3.436-3.435a2.039,2.039,0,0,0-2.882,0l-2.1,2.1a2.036,2.036,0,0,0,0,2.882l3.435,3.435a15.239,15.239,0,0,0-1.88,4.518h-4.851a2.037,2.037,0,0,0-2.036,2.038v2.968a2.037,2.037,0,0,0,2.036,2.038h4.851a15.239,15.239,0,0,0,1.88,4.518l-3.435,3.435a2.036,2.036,0,0,0,0,2.882l2.1,2.1a2.039,2.039,0,0,0,2.882,0l3.436-3.435a15.205,15.205,0,0,0,4.516,1.878v4.851a2.038,2.038,0,0,0,2.038,2.038h2.97a2.037,2.037,0,0,0,2.036-2.038v-4.851a15.2,15.2,0,0,0,4.518-1.878l3.436,3.435a2.039,2.039,0,0,0,2.882,0l2.1-2.1a2.036,2.036,0,0,0,0-2.882l-3.435-3.435a15.2,15.2,0,0,0,1.878-4.518h4.852A2.037,2.037,0,0,0,399.7,109.991Zm-20.36,6.8a8.406,8.406,0,1,1,6.859-6.859A8.417,8.417,0,0,1,379.342,116.792Z" transform="translate(-290.213 -86.72)" fill="#b3cee8"/>
    <g id="Groupe_408" data-name="Groupe 408" transform="translate(0 70.135)">
      <path id="Tracé_22021" data-name="Tracé 22021" d="M356.647,156.892h0a2.181,2.181,0,0,1-2.152-1.976,18.044,18.044,0,0,0-34.8-4.451l4.212.882-5.32,3.91-2.223,1.636h-.406l-1.6-2.76-3.157-5.442,4.221.883a22.367,22.367,0,0,1,43.371,4.88A2.178,2.178,0,0,1,356.647,156.892Z" transform="translate(-311.203 -134.522)" fill="#eef8ff"/>
      <path id="Tracé_22022" data-name="Tracé 22022" d="M315.235,153.84h0a2.18,2.18,0,0,1,2.151,1.976,18.045,18.045,0,0,0,34.8,4.452l-4.212-.883,5.319-3.91,2.224-1.634h.406l1.6,2.76,3.157,5.44-4.223-.882a22.367,22.367,0,0,1-43.371-4.88A2.179,2.179,0,0,1,315.235,153.84Z" transform="translate(-310.33 -125.497)" fill="#eef8ff"/>
      <path id="Tracé_22023" data-name="Tracé 22023" d="M314.852,149.769l-.285.208-.121-.208Z" transform="translate(-309.688 -127.399)" fill="#eef8ff"/>
    </g>
  </g>
  <path id="Tracé_22024" data-name="Tracé 22024" d="M581.453,356.068a12.936,12.936,0,0,1-13.045,12.085H207.522a12.7,12.7,0,0,1-12.69-13.313,12.458,12.458,0,0,1,4.083-8.6,13.26,13.26,0,0,1,8.962-3.485H568.772A12.7,12.7,0,0,1,581.453,356.068Z" transform="translate(-80.089 89.701)" opacity="0.28" style="mix-blend-mode: overlay;isolation: isolate"/>
  <g id="Groupe_410" data-name="Groupe 410" transform="translate(478.051 177.629)">
    <line id="Ligne_50" data-name="Ligne 50" x2="72.519" transform="translate(12.933 0.02)" fill="none" stroke="#707070" stroke-linecap="round" stroke-linejoin="round" stroke-width="2.948"/>
    <line id="Ligne_51" data-name="Ligne 51" x2="46.938" transform="translate(12.933 12.933)" fill="none" stroke="#fff" stroke-linecap="round" stroke-linejoin="round" stroke-width="2.948"/>
    <line id="Ligne_52" data-name="Ligne 52" x2="46.938" transform="translate(12.933 25.567)" fill="none" stroke="#fff" stroke-linecap="round" stroke-linejoin="round" stroke-width="2.948"/>
    <circle id="Ellipse_461" data-name="Ellipse 461" cx="12.933" cy="12.933" r="12.933" fill="url(#radial-gradient-4)" style="mix-blend-mode: color-dodge;isolation: isolate"/>
  </g>
  <g id="Groupe_411" data-name="Groupe 411" transform="translate(42.033 231.299)">
    <line id="Ligne_53" data-name="Ligne 53" x1="72.519" transform="translate(0 17.143)" fill="none" stroke="#fff" stroke-linecap="round" stroke-linejoin="round" stroke-width="2.948"/>
    <line id="Ligne_54" data-name="Ligne 54" x1="46.938" transform="translate(25.58 30.055)" fill="none" stroke="#707070" stroke-linecap="round" stroke-linejoin="round" stroke-width="2.948"/>
    <line id="Ligne_55" data-name="Ligne 55" x1="46.938" transform="translate(25.58 42.689)" fill="none" stroke="#707070" stroke-linecap="round" stroke-linejoin="round" stroke-width="2.948"/>
    <circle id="Ellipse_462" data-name="Ellipse 462" cx="12.933" cy="12.933" r="12.933" transform="translate(56.066 9.952) rotate(-22.628)" fill="url(#radial-gradient-5)" style="mix-blend-mode: color-dodge;isolation: isolate"/>
  </g>
  <path id="Tracé_22025" data-name="Tracé 22025" d="M398.367,279.21l-13.287-54.783A2.136,2.136,0,0,0,383,222.793h-84.3a2.123,2.123,0,0,0-1.636.761l-.511-.286,15.52-84.09S433.822,78.75,457.92,151.04c1.507,4.519,41.7,62.738,42.439,66.73C511.409,277.651,398.367,279.21,398.367,279.21Z" transform="translate(-32.554 -16.465)" fill="url(#radial-gradient-6)"/>
  <g id="Groupe_412" data-name="Groupe 412" transform="translate(164.875 216.925)">
    <path id="Tracé_22026" data-name="Tracé 22026" d="M231.311,197.529s-22.946,121.857,75.63,135.04c74.85,10.009,156.633-50,136.232-89.944" transform="translate(-228.996 -195.074)" fill="none" stroke="#66d7ff" stroke-linecap="round" stroke-linejoin="round" stroke-width="1.179"/>
    <path id="Tracé_22027" data-name="Tracé 22027" d="M259.112,195.856s-31.141,55.192,0,133.045S479.049,428.552,444.5,244.8" transform="translate(-221.392 -195.856)" fill="none" stroke="#0098ff" stroke-linecap="round" stroke-linejoin="round" stroke-width="1.179"/>
    <circle id="Ellipse_463" data-name="Ellipse 463" cx="12.933" cy="12.933" r="12.933" transform="translate(171.659 96.045)" fill="url(#radial-gradient-2)" style="mix-blend-mode: color-dodge;isolation: isolate"/>
    <circle id="Ellipse_464" data-name="Ellipse 464" cx="12.933" cy="12.933" r="12.933" transform="translate(69.558 164.105)" fill="url(#radial-gradient-2)" style="mix-blend-mode: color-dodge;isolation: isolate"/>
  </g>
  <g id="Groupe_413" data-name="Groupe 413" transform="translate(543.319 203.098)">
    <path id="Tracé_22028" data-name="Tracé 22028" d="M525.453,266.223a306.827,306.827,0,0,1-30.691,59.29c1.972-14.317,15.692-108.468,40.363-139.081C538.238,206.318,532.3,238.577,525.453,266.223Z" transform="translate(-483.272 -186.432)" fill="url(#linear-gradient-24)"/>
    <path id="Tracé_22029" data-name="Tracé 22029" d="M505.082,299.777q-3.231,5.308-6.661,10.476-5.333,8.033-11.116,15.649c-.078-1.272-4.308-70.8,17.733-106.807C512.815,245.678,508.61,280.219,505.082,299.777Z" transform="translate(-486.931 -171.172)" fill="#b3cee8"/>
    <path id="Tracé_22030" data-name="Tracé 22030" d="M530.616,186.432s-21.63,76.779-26.2,115.553" transform="translate(-478.764 -186.432)" fill="none" stroke="#000" stroke-miterlimit="10" stroke-width="1.179" opacity="0.25" style="mix-blend-mode: overlay;isolation: isolate"/>
    <path id="Tracé_22031" data-name="Tracé 22031" d="M501.709,219.1s-11.011,57-6.617,91.158" transform="translate(-483.602 -171.172)" fill="none" stroke="#000" stroke-miterlimit="10" stroke-width="1.179" opacity="0.25" style="mix-blend-mode: overlay;isolation: isolate"/>
  </g>
  <g id="Groupe_414" data-name="Groupe 414" transform="translate(13.242 313.718)">
    <path id="Tracé_22032" data-name="Tracé 22032" d="M188.707,323.407s-34.312-20.918-47.2-61.58c35.876,4.57,67.87,63.533,67.87,63.533Z" transform="translate(-118.237 -261.827)" fill="#b3cee8"/>
    <path id="Tracé_22033" data-name="Tracé 22033" d="M141.511,261.827s33.919,31.1,54.565,56.683" transform="translate(-118.237 -261.827)" fill="none" stroke="#000" stroke-miterlimit="10" stroke-width="1.179" opacity="0.25" style="mix-blend-mode: overlay;isolation: isolate"/>
    <path id="Tracé_22034" data-name="Tracé 22034" d="M235.663,342.356a4.259,4.259,0,0,1-1.972.208,275.987,275.987,0,0,1-24.637-24.109c-42.335-24.2-83.406,26.8-83.406,26.8s17.111-59.5,65.041-49.462h.009C238.639,305.825,235.663,342.356,235.663,342.356Z" transform="translate(-125.648 -246.492)" fill="url(#linear-gradient-25)"/>
    <path id="Tracé_22035" data-name="Tracé 22035" d="M125.648,342.294s42.55-70.554,91.144-27.25c9.568,8.526,9.547,17.985,9.547,17.985" transform="translate(-125.648 -243.532)" fill="none" stroke="#000" stroke-miterlimit="10" stroke-width="1.179" opacity="0.25" style="mix-blend-mode: overlay;isolation: isolate"/>
  </g>
</svg>
